<svg width="104" height="119" viewBox="0 0 104 119" fill="none" xmlns="http://www.w3.org/2000/svg">
<path d="M103.438 66.9336C103.438 64.6032 103.438 62.0787 103.438 59.7482V59.3599H103.05C103.05 57.0295 103.05 54.8933 103.05 52.5629C103.05 46.1542 103.05 39.7455 103.05 33.1426C103.05 30.8122 102.273 29.4528 100.331 28.2876C86.154 20.1311 71.0065 11.3916 54.4993 1.68146C53.5283 1.09885 52.557 0.710449 51.7802 0.710449C51.0034 0.710449 50.0326 0.904652 49.0616 1.68146C33.7196 10.809 18.3776 19.7425 3.42402 28.0932C1.2878 29.2584 0.510986 30.618 0.510986 33.1426C0.705189 52.3686 0.705189 69.6523 0.510986 86.1595C0.510986 88.6841 1.48181 89.8496 3.22963 90.8206C20.902 100.919 35.6613 109.27 49.2555 117.232C50.2265 117.814 51.0034 118.009 51.7802 118.009C52.557 118.009 53.3339 117.814 54.3049 117.232C69.4527 108.493 84.9888 99.5597 100.331 90.8206C102.467 89.6554 103.244 88.296 103.244 85.9656C103.438 79.7511 103.438 73.1481 103.438 66.9336ZM99.7481 39.1626V84.8002L95.6701 82.4698C90.6209 79.5568 85.5717 76.6437 80.7166 73.7307C80.134 73.3423 79.9395 72.9538 80.3279 72.177L82.2699 68.8757C87.7076 59.1655 93.5336 49.0669 99.7481 39.1626ZM60.9076 105.386C64.2091 99.5597 67.5105 93.9279 70.6177 88.4903C71.3946 87.3251 72.1716 85.9654 72.7542 84.8002C73.9194 82.6639 75.2786 80.5276 76.4438 78.3914C77.0264 77.032 77.6091 76.8381 77.9975 76.8381C78.3859 76.8381 78.9686 77.032 79.5512 77.4204C84.0179 80.1392 88.2902 82.664 92.951 85.3829C94.5046 86.3539 96.2525 87.3249 97.8061 88.2959L70.2294 104.22L57.0236 111.795L60.9076 105.386ZM55.6643 32.9482H98.1949L81.4933 62.273L77.0265 70.0411L65.5688 50.232L55.6643 32.9482ZM55.4703 29.2586V29.0642C54.8877 29.0642 54.4991 28.8701 54.3049 28.6759C54.1107 28.4817 53.9163 27.899 54.1105 27.1222C54.1105 21.8787 54.1105 16.6351 54.1105 11.0033V5.56551L94.5047 29.0642H85.1829H75.6672C69.0643 29.0642 62.2671 29.0642 55.6643 29.0642L55.4703 29.2586ZM30.8063 71.9831L39.1571 57.4179L52.1685 34.8902L63.4324 54.5049L73.5308 72.177H30.8063V71.9831ZM5.94875 33.1426H48.8672L43.8182 41.8817L27.5049 70.235L14.4935 47.9017L5.94875 33.1426ZM11.1921 85.5772C16.0472 82.8584 20.5137 80.3336 25.1746 77.6148C25.7572 77.2264 26.1455 77.0321 26.5339 77.0321C26.9223 77.0321 27.3106 77.4204 27.8932 78.3914C32.7483 86.9363 37.7977 95.4813 42.6528 104.22L47.1195 111.795L30.6123 102.278L6.53097 88.4903C7.89039 87.3251 9.6385 86.3541 11.1921 85.5772ZM24.2036 73.148C24.0094 73.7306 23.6209 74.1189 22.6499 74.5073C18.1832 76.8378 13.9107 79.3625 9.44401 81.8871C7.89039 82.8581 6.14285 83.8291 4.39503 84.8002V38.386C4.97764 39.1628 5.36614 40.1339 5.94875 40.9107C7.30816 43.2411 8.66729 45.3772 10.0267 47.5134C11.7745 50.4264 13.3283 53.3395 15.0762 56.2525C17.795 61.1076 20.7078 65.9626 23.6209 70.8177C24.2035 71.7887 24.3978 72.5654 24.2036 73.148ZM50.2265 28.0932C50.2265 28.4816 50.2268 28.87 50.0326 29.0642C49.8384 29.2584 49.8383 29.2586 49.4499 29.2586C49.2557 29.2586 49.0614 29.2586 48.8672 29.2586C48.673 29.2586 48.4787 29.2586 48.2845 29.2586C40.5164 29.2586 32.5544 29.2586 24.7863 29.2586H17.0182H9.6384L28.8642 18.1887L50.2265 5.7599V11.586C50.0323 17.0236 50.0323 22.6555 50.2265 28.0932ZM73.3369 76.2554L67.8991 85.7712L52.1685 112.959L31.0007 76.2554H73.3369Z" fill="white"/>
</svg>
