<svg width="2069" height="1328" viewBox="0 0 2069 1328" fill="none" xmlns="http://www.w3.org/2000/svg">
<path d="M2068.47 933.662H636.231V109.273H642.057V927.836H2068.47V933.662Z" fill="white"/>
<path d="M1961.66 890.354C1947.48 890.354 1899.13 888.801 1843.98 869.575C1783.58 848.407 1702.6 801.215 1659.29 695.764C1568.21 474.373 1503.93 321.924 1487.23 288.133C1465.86 244.825 1438.48 197.634 1383.91 185.594C1334.39 174.718 1291.08 208.122 1251.66 287.939C1234.96 321.73 1170.68 474.178 1079.59 695.569C1036.29 800.827 955.305 848.212 894.908 869.38C829.656 892.296 773.726 890.16 773.144 890.16L773.338 884.334C773.92 884.334 828.879 886.276 893.16 863.749C952.392 842.969 1031.82 796.554 1074.16 693.433C1165.24 471.848 1229.52 319.399 1246.41 285.414C1261.37 255.118 1307.01 162.678 1385.08 179.962C1442.17 192.585 1470.33 241.136 1492.27 285.608C1508.98 319.593 1573.45 472.042 1664.53 693.627C1707.06 796.943 1786.49 843.357 1845.53 863.942C1909.81 886.47 1964.77 884.528 1965.35 884.528L1965.55 890.354C1965.55 890.16 1964.19 890.354 1961.66 890.354Z" fill="white"/>
<path d="M825.19 926.865H821.306V930.749H825.19V926.865Z" fill="white"/>
<path d="M825.19 922.981H821.306V915.018H825.19V922.981ZM825.19 911.134H821.306V903.172H825.19V911.134ZM825.19 899.288H821.306V891.326H825.19V899.288Z" fill="white"/>
<path d="M825.19 883.558H821.306V887.442H825.19V883.558Z" fill="white"/>
<path d="M1002.3 926.865H998.418V930.749H1002.3V926.865Z" fill="white"/>
<path d="M1002.3 923.175H998.418V915.6H1002.3V923.175ZM1002.3 911.523H998.418V903.948H1002.3V911.523ZM1002.3 900.064H998.418V892.49H1002.3V900.064ZM1002.3 888.606H998.418V881.033H1002.3V888.606ZM1002.3 877.149H998.418V869.575H1002.3V877.149ZM1002.3 865.691H998.418V858.117H1002.3V865.691ZM1002.3 854.233H998.418V846.659H1002.3V854.233ZM1002.3 842.775H998.418V835.201H1002.3V842.775ZM1002.3 831.317H998.418V823.743H1002.3V831.317ZM1002.3 819.859H998.418V812.285H1002.3V819.859Z" fill="white"/>
<path d="M1002.3 804.517H998.418V808.401H1002.3V804.517Z" fill="white"/>
<path d="M1181.94 926.865H1178.06V930.749H1181.94V926.865Z" fill="white"/>
<path d="M1181.94 922.981H1178.06V915.213H1181.94V922.981ZM1181.94 911.523H1178.06V903.755H1181.94V911.523ZM1181.94 899.871H1178.06V892.102H1181.94V899.871ZM1181.94 888.218H1178.06V880.45H1181.94V888.218ZM1181.94 876.76H1178.06V868.992H1181.94V876.76ZM1181.94 865.108H1178.06V857.34H1181.94V865.108ZM1181.94 853.456H1178.06V845.688H1181.94V853.456ZM1181.94 841.998H1178.06V834.23H1181.94V841.998ZM1181.94 830.346H1178.06V822.578H1181.94V830.346ZM1181.94 818.888H1178.06V811.12H1181.94V818.888ZM1181.94 807.236H1178.06V799.468H1181.94V807.236ZM1181.94 795.584H1178.06V787.816H1181.94V795.584ZM1181.94 784.126H1178.06V776.358H1181.94V784.126ZM1181.94 772.474H1178.06V764.706H1181.94V772.474ZM1181.94 760.822H1178.06V753.054H1181.94V760.822ZM1181.94 749.364H1178.06V741.595H1181.94V749.364ZM1181.94 737.711H1178.06V729.943H1181.94V737.711ZM1181.94 726.059H1178.06V718.291H1181.94V726.059ZM1181.94 714.602H1178.06V706.833H1181.94V714.602ZM1181.94 702.949H1178.06V695.181H1181.94V702.949ZM1181.94 691.491H1178.06V683.723H1181.94V691.491ZM1181.94 679.839H1178.06V672.071H1181.94V679.839ZM1181.94 668.187H1178.06V660.419H1181.94V668.187ZM1181.94 656.729H1178.06V648.961H1181.94V656.729ZM1181.94 645.077H1178.06V637.309H1181.94V645.077ZM1181.94 633.425H1178.06V625.657H1181.94V633.425ZM1181.94 621.967H1178.06V614.199H1181.94V621.967ZM1181.94 610.315H1178.06V602.547H1181.94V610.315ZM1181.94 598.663H1178.06V590.895H1181.94V598.663ZM1181.94 587.205H1178.06V579.436H1181.94V587.205ZM1181.94 575.552H1178.06V567.784H1181.94V575.552ZM1181.94 564.095H1178.06V556.327H1181.94V564.095ZM1181.94 552.443H1178.06V544.674H1181.94V552.443ZM1181.94 540.79H1178.06V533.022H1181.94V540.79ZM1181.94 529.332H1178.06V521.564H1181.94V529.332ZM1181.94 517.68H1178.06V509.912H1181.94V517.68ZM1181.94 506.028H1178.06V498.26H1181.94V506.028ZM1181.94 494.57H1178.06V486.802H1181.94V494.57ZM1181.94 482.918H1178.06V475.15H1181.94V482.918ZM1181.94 471.266H1178.06V463.498H1181.94V471.266ZM1181.94 459.808H1178.06V452.04H1181.94V459.808Z" fill="white"/>
<path d="M1181.94 444.272H1178.06V448.156H1181.94V444.272Z" fill="white"/>
<path d="M1370.12 926.865H1366.24V930.749H1370.12V926.865Z" fill="white"/>
<path d="M1370.12 922.98H1366.24V915.212H1370.12V922.98ZM1370.12 911.328H1366.24V903.56H1370.12V911.328ZM1370.12 899.482H1366.24V891.714H1370.12V899.482ZM1370.12 887.83H1366.24V880.062H1370.12V887.83ZM1370.12 876.177H1366.24V868.409H1370.12V876.177ZM1370.12 864.331H1366.24V856.563H1370.12V864.331ZM1370.12 852.679H1366.24V844.911H1370.12V852.679ZM1370.12 841.027H1366.24V833.259H1370.12V841.027ZM1370.12 829.181H1366.24V821.413H1370.12V829.181ZM1370.12 817.529H1366.24V809.76H1370.12V817.529ZM1370.12 805.682H1366.24V797.914H1370.12V805.682ZM1370.12 794.03H1366.24V786.262H1370.12V794.03ZM1370.12 782.378H1366.24V774.61H1370.12V782.378ZM1370.12 770.532H1366.24V762.764H1370.12V770.532ZM1370.12 758.88H1366.24V751.111H1370.12V758.88ZM1370.12 747.227H1366.24V739.459H1370.12V747.227ZM1370.12 735.381H1366.24V727.613H1370.12V735.381ZM1370.12 723.729H1366.24V715.961H1370.12V723.729ZM1370.12 712.077H1366.24V704.308H1370.12V712.077ZM1370.12 700.23H1366.24V692.462H1370.12V700.23ZM1370.12 688.578H1366.24V680.81H1370.12V688.578ZM1370.12 676.926H1366.24V669.158H1370.12V676.926ZM1370.12 665.08H1366.24V657.312H1370.12V665.08ZM1370.12 653.428H1366.24V645.659H1370.12V653.428ZM1370.12 641.581H1366.24V633.813H1370.12V641.581ZM1370.12 629.929H1366.24V622.161H1370.12V629.929ZM1370.12 618.277H1366.24V610.509H1370.12V618.277ZM1370.12 606.431H1366.24V598.663H1370.12V606.431ZM1370.12 594.779H1366.24V587.01H1370.12V594.779ZM1370.12 583.126H1366.24V575.358H1370.12V583.126ZM1370.12 571.28H1366.24V563.512H1370.12V571.28ZM1370.12 559.628H1366.24V551.86H1370.12V559.628ZM1370.12 547.976H1366.24V540.207H1370.12V547.976ZM1370.12 536.129H1366.24V528.361H1370.12V536.129ZM1370.12 524.477H1366.24V516.709H1370.12V524.477ZM1370.12 512.825H1366.24V505.057H1370.12V512.825ZM1370.12 500.979H1366.24V493.211H1370.12V500.979ZM1370.12 489.327H1366.24V481.558H1370.12V489.327ZM1370.12 477.48H1366.24V469.712H1370.12V477.48ZM1370.12 465.828H1366.24V458.06H1370.12V465.828ZM1370.12 454.176H1366.24V446.408H1370.12V454.176ZM1370.12 442.33H1366.24V434.562H1370.12V442.33ZM1370.12 430.678H1366.24V422.909H1370.12V430.678ZM1370.12 419.025H1366.24V411.257H1370.12V419.025ZM1370.12 407.179H1366.24V399.411H1370.12V407.179ZM1370.12 395.527H1366.24V387.759H1370.12V395.527ZM1370.12 383.875H1366.24V376.106H1370.12V383.875ZM1370.12 372.028H1366.24V364.26H1370.12V372.028ZM1370.12 360.376H1366.24V352.608H1370.12V360.376ZM1370.12 348.724H1366.24V340.956H1370.12V348.724ZM1370.12 336.878H1366.24V329.11H1370.12V336.878ZM1370.12 325.226H1366.24V317.457H1370.12V325.226ZM1370.12 313.379H1366.24V305.611H1370.12V313.379ZM1370.12 301.727H1366.24V293.959H1370.12V301.727ZM1370.12 290.075H1366.24V282.307H1370.12V290.075ZM1370.12 278.229H1366.24V270.461H1370.12V278.229ZM1370.12 266.577H1366.24V258.808H1370.12V266.577ZM1370.12 254.924H1366.24V247.156H1370.12V254.924ZM1370.12 243.078H1366.24V235.31H1370.12V243.078ZM1370.12 231.426H1366.24V223.658H1370.12V231.426ZM1370.12 219.774H1366.24V212.006H1370.12V219.774ZM1370.12 207.927H1366.24V200.159H1370.12V207.927ZM1370.12 196.275H1366.24V188.507H1370.12V196.275Z" fill="white"/>
<path d="M1370.12 180.739H1366.24V184.623H1370.12V180.739Z" fill="white"/>
<path d="M1916.22 926.865H1912.33V930.749H1916.22V926.865Z" fill="white"/>
<path d="M1916.22 922.981H1912.33V915.018H1916.22V922.981ZM1916.22 911.134H1912.33V903.172H1916.22V911.134ZM1916.22 899.288H1912.33V891.326H1916.22V899.288Z" fill="white"/>
<path d="M1916.22 883.558H1912.33V887.442H1916.22V883.558Z" fill="white"/>
<path d="M1739.11 926.865H1735.22V930.749H1739.11V926.865Z" fill="white"/>
<path d="M1739.11 923.175H1735.22V915.6H1739.11V923.175ZM1739.11 911.523H1735.22V903.948H1739.11V911.523ZM1739.11 900.064H1735.22V892.49H1739.11V900.064ZM1739.11 888.606H1735.22V881.033H1739.11V888.606ZM1739.11 877.149H1735.22V869.575H1739.11V877.149ZM1739.11 865.691H1735.22V858.117H1739.11V865.691ZM1739.11 854.233H1735.22V846.659H1739.11V854.233ZM1739.11 842.775H1735.22V835.201H1739.11V842.775ZM1739.11 831.317H1735.22V823.743H1739.11V831.317ZM1739.11 819.859H1735.22V812.285H1739.11V819.859Z" fill="white"/>
<path d="M1739.11 804.517H1735.22V808.401H1739.11V804.517Z" fill="white"/>
<path d="M1559.47 926.865H1555.58V930.749H1559.47V926.865Z" fill="white"/>
<path d="M1559.47 922.981H1555.58V915.213H1559.47V922.981ZM1559.47 911.523H1555.58V903.755H1559.47V911.523ZM1559.47 899.871H1555.58V892.102H1559.47V899.871ZM1559.47 888.218H1555.58V880.45H1559.47V888.218ZM1559.47 876.76H1555.58V868.992H1559.47V876.76ZM1559.47 865.108H1555.58V857.34H1559.47V865.108ZM1559.47 853.456H1555.58V845.688H1559.47V853.456ZM1559.47 841.998H1555.58V834.23H1559.47V841.998ZM1559.47 830.346H1555.58V822.578H1559.47V830.346ZM1559.47 818.888H1555.58V811.12H1559.47V818.888ZM1559.47 807.236H1555.58V799.468H1559.47V807.236ZM1559.47 795.584H1555.58V787.816H1559.47V795.584ZM1559.47 784.126H1555.58V776.358H1559.47V784.126ZM1559.47 772.474H1555.58V764.706H1559.47V772.474ZM1559.47 760.822H1555.58V753.054H1559.47V760.822ZM1559.47 749.364H1555.58V741.595H1559.47V749.364ZM1559.47 737.711H1555.58V729.943H1559.47V737.711ZM1559.47 726.059H1555.58V718.291H1559.47V726.059ZM1559.47 714.602H1555.58V706.833H1559.47V714.602ZM1559.47 702.949H1555.58V695.181H1559.47V702.949ZM1559.47 691.491H1555.58V683.723H1559.47V691.491ZM1559.47 679.839H1555.58V672.071H1559.47V679.839ZM1559.47 668.187H1555.58V660.419H1559.47V668.187ZM1559.47 656.729H1555.58V648.961H1559.47V656.729ZM1559.47 645.077H1555.58V637.309H1559.47V645.077ZM1559.47 633.425H1555.58V625.657H1559.47V633.425ZM1559.47 621.967H1555.58V614.199H1559.47V621.967ZM1559.47 610.315H1555.58V602.547H1559.47V610.315ZM1559.47 598.663H1555.58V590.895H1559.47V598.663ZM1559.47 587.205H1555.58V579.436H1559.47V587.205ZM1559.47 575.552H1555.58V567.784H1559.47V575.552ZM1559.47 564.095H1555.58V556.327H1559.47V564.095ZM1559.47 552.443H1555.58V544.674H1559.47V552.443ZM1559.47 540.79H1555.58V533.022H1559.47V540.79ZM1559.47 529.332H1555.58V521.564H1559.47V529.332ZM1559.47 517.68H1555.58V509.912H1559.47V517.68ZM1559.47 506.028H1555.58V498.26H1559.47V506.028ZM1559.47 494.57H1555.58V486.802H1559.47V494.57ZM1559.47 482.918H1555.58V475.15H1559.47V482.918ZM1559.47 471.266H1555.58V463.498H1559.47V471.266ZM1559.47 459.808H1555.58V452.04H1559.47V459.808Z" fill="white"/>
<path d="M1559.47 444.272H1555.58V448.156H1559.47V444.272Z" fill="white"/>
<path d="M762.268 318.817V309.301V299.785V290.269V280.753V271.237V261.721V252.205H771.784H781.3H790.816H800.332V261.721H809.848V271.237V280.753H800.332V271.237V261.721H790.816H781.3H771.784V271.237V280.753H781.3H790.816H800.332V290.269H790.816H781.3H771.784V299.785V309.301V318.817H762.268Z" fill="white"/>
<path d="M850.242 318.816V309.301V299.785V290.269V280.753V271.237H859.758V280.753V290.269H869.274V299.785H859.758V309.301V318.816H850.242ZM869.468 290.074V280.559H878.984V290.074H869.468ZM888.5 271.042H898.016V280.559H888.5H878.984V271.042H888.5Z" fill="white"/>
<path d="M947.926 309.301H938.41V299.785V290.269V280.753V271.237V261.721H947.926V271.237V280.753V290.269V299.785V309.301ZM947.926 261.527V252.011H957.442V261.527H947.926ZM947.926 318.817V309.301H957.442V318.817H947.926Z" fill="white"/>
<path d="M1007.16 271.043H997.641V261.527V252.011H1007.16V261.527V271.043ZM997.641 318.817V309.301V299.785H1007.16V309.301V318.817H997.641ZM1016.87 280.559H1007.35V271.043H1016.87V280.559ZM1007.16 299.785V290.269H1016.67V299.785H1007.16ZM1026.38 290.075H1016.87V280.559H1026.38V290.075ZM1026.38 280.559V271.043H1035.9V280.559H1026.38ZM1035.9 299.785H1026.38V290.269H1035.9V299.785ZM1035.9 271.043V261.527V252.011H1045.42V261.527V271.043H1035.9ZM1035.9 318.817V309.301V299.785H1045.42V309.301V318.817H1035.9Z" fill="white"/>
<path d="M1095.33 261.527H1085.81V252.011H1095.33V261.527ZM1085.62 318.817V309.301H1095.13V318.817H1085.62ZM1095.33 309.301V299.785V290.269V280.753V271.237V261.721H1104.84V271.237V280.753V290.269V299.785V309.301H1095.33Z" fill="white"/>
<path d="M338.325 907.444V914.629V921.814V929H331.139V921.814V914.629V907.444H338.325ZM345.316 907.444H338.13V900.258H345.316V907.444ZM373.864 928.806V935.991H366.678H359.493H352.307H345.122H337.936V928.806H345.122H352.307H359.493H366.678H373.864ZM373.864 907.444H366.678H359.493V914.629V921.814H352.307V914.629V907.444V900.258H359.493H366.678H373.864V907.444ZM373.864 914.435V907.249H381.049V914.435V921.62V928.806H373.864V921.62V914.435Z" fill="white"/>
<path d="M338.325 841.997V849.183V856.369V863.554H331.139V856.369V849.183V841.997H338.325ZM380.855 841.997H373.669H366.484H359.299V849.183V856.369V863.554H366.484H373.669H380.855V870.739H373.669H366.484H359.299H352.113H344.927H337.742V863.554H344.927H352.113V856.369V849.183V841.997H344.927H337.742V834.812H344.927H352.113H359.299H366.484H373.669H380.855V841.997Z" fill="white"/>
<path d="M373.864 776.745H366.678H359.493H352.307H345.122H337.936H330.751V769.56H337.936H345.122H352.307H359.493H366.678H373.864V776.745ZM373.864 798.108V805.293H366.678H359.493H352.307H345.122H337.936H330.751V798.108H337.936H345.122H352.307H359.493H366.678H373.864ZM373.864 783.736V776.551H381.049V783.736V790.922V798.108H373.864V790.922V783.736Z" fill="white"/>
<path d="M338.325 711.3V718.485V725.67V732.856H331.139V725.67V718.485V711.3H338.325ZM345.316 711.3H338.13V704.114H345.316V711.3ZM352.501 732.662V739.847H345.316H338.13V732.662H345.316H352.501ZM359.687 711.3V718.485V725.67V732.856H352.501V725.67V718.485V711.3H359.687ZM373.864 711.3H366.678H359.493V704.114H366.678H373.864V711.3ZM373.864 732.662V739.847H366.678V732.662H373.864ZM373.864 718.485V711.3H381.049V718.485V725.67V732.856H373.864V725.67V718.485Z" fill="white"/>
<path d="M338.325 646.047V653.233V660.418V667.604H331.139V660.418V653.233V646.047H338.325ZM345.316 646.047H338.13V638.862H345.316V646.047ZM352.501 667.215V674.401H345.316H338.13V667.215H345.316H352.501ZM359.687 646.047V653.233V660.418V667.604H352.501V660.418V653.233V646.047H359.687ZM373.864 646.047H366.678H359.493V638.862H366.678H373.864V646.047ZM373.864 667.215V674.401H366.678V667.215H373.864ZM373.864 653.039V645.853H381.049V653.039V660.224V667.409H373.864V660.224V653.039Z" fill="white"/>
<path d="M373.864 580.601V573.416H381.049V580.601V587.787V594.972V602.158V609.343H373.864V602.158V594.972H366.678H359.493H352.307H345.122H337.936V602.158V609.343H330.751V602.158V594.972V587.787V580.601V573.416H337.936V580.601V587.787H345.122H352.307H359.493H366.678H373.864V580.601Z" fill="white"/>
<path d="M338.325 515.155V522.34V529.526V536.711H331.139V529.526V522.34V515.155H338.325ZM380.855 515.155H373.669H366.484H359.299V522.34V529.526V536.711H366.484H373.669H380.855V543.897H373.669H366.484H359.299H352.113H344.927H337.742V536.711H344.927H352.113V529.526V522.34V515.155H344.927H337.742V507.969H344.927H352.113H359.299H366.484H373.669H380.855V515.155Z" fill="white"/>
<path d="M380.855 449.903H373.669V457.089H366.484H359.298V449.903H352.113H344.927H337.742H330.556V442.718H337.742H344.927H352.113H359.298H366.484H373.669H380.855V449.903ZM380.855 478.257H373.669H366.484H359.298H352.113H344.927H337.742H330.556V471.071H337.742V463.886H344.927V456.7H352.113H359.298V463.886H352.113H344.927V471.071H352.113H359.298H366.484H373.669H380.855V478.257Z" fill="white"/>
<path d="M478.733 914.435V921.62V928.806V935.991H471.547H464.362H457.176H449.991H442.805H435.62H428.434V928.806V921.62V914.435V907.249H435.62V900.063H442.805H449.991H457.176H464.362H471.547V907.249H478.733V914.435ZM471.547 914.435V907.249H464.362H457.176H449.991H442.805H435.62V914.435V921.62V928.806H442.805H449.991H457.176H464.362H471.547V921.62V914.435Z" fill="white"/>
<path d="M471.547 841.997V834.812H478.733V841.997V849.183V856.369V863.554V870.739H471.547V863.554V856.369H464.362H457.176H449.991H442.805H435.62V863.554V870.739H428.434V863.554V856.369V849.183V841.997V834.812H435.62V841.997V849.183H442.805H449.991H457.176H464.362H471.547V841.997Z" fill="white"/>
<path d="M436.008 776.746V783.931V791.117V798.302H428.823V791.117V783.931V776.746H436.008ZM443.194 776.746H436.008V769.561H443.194V776.746ZM450.185 798.108V805.294H443H435.814V798.108H443H450.185ZM457.371 776.746V783.931V791.117V798.302H450.185V791.117V783.931V776.746H457.371ZM471.547 776.746H464.362H457.176V769.561H464.362H471.547V776.746ZM471.547 798.108V805.294H464.362V798.108H471.547ZM471.547 783.737V776.552H478.733V783.737V790.923V798.108H471.547V790.923V783.737Z" fill="white"/>
<path d="M478.733 725.476H471.547H464.362H457.176H449.991H442.805H435.62V732.662V739.847H428.434V732.662V725.476V718.291V711.105V703.92H435.62V711.105V718.291H442.805H449.991H457.176H464.362H471.547H478.733V725.476Z" fill="white"/>
<path d="M478.733 674.401H471.547H464.362H457.176H449.991H442.805H435.62H428.434V667.215V660.03V652.844V645.659H435.62V638.474H442.805H449.991V645.659H442.805H435.62V652.844V660.03V667.215H442.805H449.991V660.03V652.844V645.659H457.176V652.844H464.362V645.659H471.547V652.844H464.362V660.03H457.176V667.215H464.362H471.547H478.733V674.401ZM478.733 646.047H471.547V638.862H478.733V646.047Z" fill="white"/>
<path d="M471.547 580.601V573.416H478.733V580.601V587.787V594.972V602.158V609.343H471.547V602.158V594.972H464.362H457.176H449.991H442.805H435.62V602.158V609.343H428.434V602.158V594.972V587.787V580.601V573.416H435.62V580.601V587.787H442.805H449.991H457.176H464.362H471.547V580.601Z" fill="white"/>
<path d="M478.733 522.34V529.526V536.711V543.897H471.547H464.362H457.176H449.991H442.805H435.62H428.434V536.711V529.526V522.34V515.155H435.62V507.969H442.805H449.991V515.155H442.805H435.62V522.34V529.526V536.711H442.805H449.991V529.526V522.34V515.155H457.176V507.969H464.362H471.547V515.155H478.733V522.34ZM471.547 522.34V515.155H464.362H457.176V522.34V529.526V536.711H464.362H471.547V529.526V522.34Z" fill="white"/>
<path d="M471.547 449.903H464.362H457.176H449.991H442.805H435.62H428.434V442.718H435.62H442.805H449.991H457.176H464.362H471.547V449.903ZM471.547 471.265V478.451H464.362H457.176H449.991H442.805H435.62H428.434V471.265H435.62H442.805H449.991H457.176H464.362H471.547ZM471.547 457.089V449.903H478.733V457.089V464.274V471.46H471.547V464.274V457.089Z" fill="white"/>
<path d="M478.733 398.828H471.547H464.362H457.176H449.991H442.805H435.62V406.013V413.199H428.434V406.013V398.828V391.642V384.457V377.271H435.62V384.457V391.642H442.805H449.991H457.176H464.362H471.547H478.733V398.828Z" fill="white"/>
<path d="M471.547 319.205V312.02H478.733V319.205V326.39V333.576V340.762V347.947H471.547V340.762V333.576H464.362H457.176H449.991H442.805H435.62V340.762V347.947H428.434V340.762V333.576V326.39V319.205V312.02H435.62V319.205V326.39H442.805H449.991H457.176H464.362H471.547V319.205Z" fill="white"/>
<path d="M436.008 253.759V260.944V268.129V275.315H428.823V268.129V260.944V253.759H436.008ZM471.547 253.759H464.362H457.176H449.991H442.805H435.62V246.573H442.805H449.991H457.176H464.362H471.547V253.759ZM471.547 275.121V282.306H464.362H457.176H449.991H442.805H435.62V275.121H442.805H449.991H457.176H464.362H471.547ZM471.547 260.944V253.759H478.733V260.944V268.129V275.315H471.547V268.129V260.944Z" fill="white"/>
<path d="M478.733 188.507H471.547V195.693H464.362H457.176V188.507H449.991H442.805H435.62H428.434V181.321H435.62H442.805H449.991H457.176H464.362H471.547H478.733V188.507ZM478.733 216.86H471.547H464.362H457.176H449.991H442.805H435.62H428.434V209.675H435.62V202.49H442.805V195.304H449.991H457.176V202.49H449.991H442.805V209.675H449.991H457.176H464.362H471.547H478.733V216.86Z" fill="white"/>
<path d="M412.51 1327.5H74.0152V613.422L138.684 548.752H0.800781L74.0152 475.538V153.162L226.464 0.519531H642.057V109.273H636.231V6.3456H228.794L79.8413 155.493V478.063L14.9776 542.926H152.861L79.8413 615.947V1321.68H406.684V1129.22H412.51V1327.5Z" fill="white"/>
<path d="M379.495 1129.22H439.698L409.597 1092.32L379.495 1129.22Z" fill="white"/>
</svg>
