<svg width="555" height="187" viewBox="0 0 555 187" fill="none" xmlns="http://www.w3.org/2000/svg">
<path d="M3.90876 171.912H0.995728V186.671H3.90876V171.912Z" fill="white"/>
<path d="M27.6014 171.912H24.6883V186.671H27.6014V171.912Z" fill="white"/>
<path d="M50.3229 167.832H47.4099V186.477H50.3229V167.832Z" fill="white"/>
<path d="M73.0445 163.755H70.1315V186.477H73.0445V163.755Z" fill="white"/>
<path d="M95.5722 161.812H92.6591V186.67H95.5722V161.812Z" fill="white"/>
<path d="M118.294 159.871H115.381V186.671H118.294V159.871Z" fill="white"/>
<path d="M141.986 155.792H139.073V186.671H141.986V155.792Z" fill="white"/>
<path d="M164.708 147.637H161.795V186.477H164.708V147.637Z" fill="white"/>
<path d="M187.43 133.653H184.517V186.67H187.43V133.653Z" fill="white"/>
<path d="M210.152 115.397H207.239V186.477H210.152V115.397Z" fill="white"/>
<path d="M232.679 93.2598H229.766V186.67H232.679V93.2598Z" fill="white"/>
<path d="M256.76 61.0215H253.847V186.671H256.76V61.0215Z" fill="white"/>
<path d="M554.084 171.912H551.171V186.671H554.084V171.912Z" fill="white"/>
<path d="M530.391 171.912H527.478V186.671H530.391V171.912Z" fill="white"/>
<path d="M507.669 167.832H504.756V186.477H507.669V167.832Z" fill="white"/>
<path d="M484.948 163.755H482.035V186.477H484.948V163.755Z" fill="white"/>
<path d="M462.42 161.812H459.507V186.67H462.42V161.812Z" fill="white"/>
<path d="M439.699 159.871H436.786V186.671H439.699V159.871Z" fill="white"/>
<path d="M416.006 155.792H413.093V186.671H416.006V155.792Z" fill="white"/>
<path d="M393.284 147.637H390.371V186.477H393.284V147.637Z" fill="white"/>
<path d="M370.562 133.653H367.649V186.67H370.562V133.653Z" fill="white"/>
<path d="M348.035 116.951C348.035 116.174 347.452 115.397 346.481 115.397C345.705 115.397 344.928 115.98 344.928 116.951V186.67H347.841V116.951H348.035Z" fill="white"/>
<path d="M325.119 77.1396H322.206V186.671H325.119V77.1396Z" fill="white"/>
<path d="M301.232 44.9023H298.319V186.67H301.232V44.9023Z" fill="white"/>
<path d="M278.899 0.429688H275.986V186.477H278.899V0.429688Z" fill="white"/>
</svg>
