<svg width="1580" height="298" viewBox="0 0 1580 298" fill="none" xmlns="http://www.w3.org/2000/svg">
<path d="M181.108 297.163H117.022V238.902H58.7609V180.641H0.500244V116.555H58.7609V58.2939H117.022V0.0332031H181.108V64.12H122.848V122.381H64.587V174.815H122.848V233.076H181.108V297.163ZM122.848 291.337H175.282V238.902H122.848V291.337ZM64.587 233.076H117.022V180.641H64.587V233.076ZM6.32631 174.815H58.7609V122.381H6.32631V174.815ZM64.587 116.555H117.022V64.12H64.587V116.555ZM122.848 58.2939H175.282V5.85927H122.848V58.2939Z" fill="white"/>
<path d="M880.237 297.163H816.15V238.903H757.889V180.642H699.629V116.555H757.889V58.2944H816.15V0.0336914H880.237V64.1205H821.976V122.381H763.715V174.816H821.976V233.076H880.237V297.163ZM821.976 291.337H874.411V238.903H821.976V291.337ZM763.715 233.076H816.15V180.642H763.715V233.076ZM705.455 174.816H757.889V122.381H705.455V174.816ZM763.715 116.555H816.15V64.1205H763.715V116.555ZM821.976 58.2944H874.411V5.85976H821.976V58.2944Z" fill="white"/>
<path d="M1579.56 297.163H1515.47V238.902H1457.21V180.641H1398.95V116.555H1457.21V58.2939H1515.47V0.0332031H1579.56V64.12H1521.3V122.381H1463.04V174.815H1521.3V233.076H1579.56V297.163ZM1521.3 291.337H1573.73V238.902H1521.3V291.337ZM1463.04 233.076H1515.47V180.641H1463.04V233.076ZM1404.78 174.815H1457.21V122.381H1404.78V174.815ZM1463.04 116.555H1515.47V64.12H1463.04V116.555ZM1521.3 58.2939H1573.73V5.85927H1521.3V58.2939Z" fill="white"/>
</svg>
