<svg width="299" height="881" viewBox="0 0 299 881" fill="none" xmlns="http://www.w3.org/2000/svg">
<path d="M181.581 880.102H117.494V821.841H59.2335V763.58H0.972778V699.493H65.0595V757.754H123.32V816.015H175.755V757.754H234.016V699.493H298.102V763.58H239.842V821.841H181.581V880.102ZM123.32 874.276H175.755V821.841H123.32V874.276ZM181.581 816.015H234.016V763.58H181.581V816.015ZM65.0595 816.015H117.494V763.58H65.0595V816.015ZM239.842 757.754H292.276V705.32H239.842V757.754ZM6.79885 757.754H59.2335V705.32H6.79885V757.754Z" fill="white"/>
<path d="M181.581 180.973H117.494V122.712H59.2334V64.4518H0.972656V0.36499H65.0594V58.6257H123.32V116.886H175.755V58.6257H234.015V0.36499H298.102V64.4518H239.842V122.712H181.581V180.973ZM123.32 175.147H175.755V122.712H123.32V175.147ZM181.581 116.692H234.015V64.2574H181.581V116.692ZM65.0594 116.692H117.494V64.2574H65.0594V116.692ZM239.842 58.4313H292.276V5.99667H239.842V58.4313ZM6.79873 58.4313H59.2334V5.99667H6.79873V58.4313Z" fill="white"/>
</svg>
