<svg width="3873" height="387" viewBox="0 0 3873 387" fill="none" xmlns="http://www.w3.org/2000/svg">
<path d="M29.6737 104.604V97.4185V90.2331V83.0473H22.4883V90.2331H15.3027V97.4185H8.11727V104.604H0.931641V97.4185V90.2331V83.0473V75.8619V68.6765H8.11727V75.8619V83.0473V90.2331H15.3027V83.0473H22.4883V75.8619H29.6737V68.6765H36.8591V75.8619V83.0473V90.2331V97.4185V104.604H29.6737ZM29.6737 69.0648H22.4883H15.3027H8.11727V61.8794H15.3027H22.4883H29.6737V69.0648ZM22.4883 104.604H29.6737V111.789H22.4883H15.3027H8.11727V104.604H15.3027H22.4883Z" fill="white"/>
<path d="M94.9256 104.604H102.111V111.789H94.9256H87.7402H80.5546H73.3692H66.1838V104.604H73.3692H80.5546V97.4186V90.2332V83.0474V75.862H73.3692V68.6766H80.5546V61.4912H87.7402V68.6766V75.862V83.0474V90.2332V97.4186V104.604H94.9256ZM66.5721 83.2418V76.0564H73.7575V83.2418H66.5721Z" fill="white"/>
<path d="M340.786 111.789H314.957L305.441 88.4848L297.479 111.789H271.65L252.424 62.6558H277.864L288.545 90.2329L298.061 62.6558H320.589L331.658 90.2329L340.786 62.6558H356.905L340.786 111.789Z" fill="white"/>
<path d="M435.751 111.789H409.922V92.9515H387.2V111.789H361.371V62.6558H387.2V81.4938H409.922V62.6558H435.751V111.789Z" fill="white"/>
<path d="M523.142 111.789H496.73L492.652 104.215H460.997L456.919 111.789H440.023L467.212 62.6558H495.953L523.142 111.789ZM486.437 92.7571L476.922 75.4733L467.406 92.7571H486.437Z" fill="white"/>
<path d="M564.313 111.789H538.484V74.3079H515.374V62.6558H587.423V74.3079H564.313V111.789Z" fill="white"/>
<path d="M659.86 111.789H634.031V62.6558H659.86V111.789Z" fill="white"/>
<path d="M703.362 113.537C698.895 113.537 694.428 113.343 689.962 112.955C685.495 112.566 681.611 111.789 678.115 110.624C674.62 109.459 671.707 107.711 669.57 105.575C667.434 103.244 666.463 100.331 666.463 96.4474H692.292C692.292 98.1952 692.68 99.5546 693.651 100.331C694.622 101.108 695.788 101.691 697.536 102.079C699.089 102.273 701.031 102.467 703.167 102.467H705.692C708.022 102.467 710.159 102.274 711.712 101.885C713.46 101.497 714.431 100.525 714.431 98.5833C714.431 97.2239 713.072 96.2532 710.159 95.4764C707.44 94.8938 704.138 94.3111 700.06 93.9227C695.205 93.34 690.35 92.5631 685.495 91.3979C680.64 90.2327 676.173 88.6794 672.678 86.349C668.988 84.0185 667.046 80.7167 667.046 76.2501C667.046 72.7544 668.017 70.036 669.959 67.8997C671.901 65.7635 674.62 64.2099 678.115 63.0447C681.611 61.8795 685.495 61.2969 689.962 61.1027C694.428 60.9084 698.895 60.7139 703.362 60.7139C708.022 60.7139 712.489 60.9082 716.762 61.2966C721.034 61.685 724.918 62.4617 728.414 63.6269C731.909 64.7921 734.628 66.5401 736.764 68.6764C738.901 71.0068 739.871 73.9197 739.871 77.8038H714.625C714.625 76.0559 714.237 74.6965 713.266 73.9197C712.295 73.1429 711.13 72.5605 709.382 72.1721C707.634 71.9779 704.915 71.7838 701.225 71.7838C698.895 71.7838 696.953 71.9776 695.399 72.366C693.846 72.7544 693.069 73.7256 693.069 75.4734V76.0561C693.263 77.2213 694.623 77.998 697.341 78.7748C700.06 79.5516 703.362 80.1345 707.44 80.5229C712.101 81.2997 716.956 82.0763 722.005 83.2415C727.054 84.4067 731.327 86.1548 734.822 88.291C738.512 90.6214 740.454 93.9228 740.454 98.0011C740.454 101.691 739.483 104.604 737.347 106.74C735.405 108.876 732.492 110.43 728.996 111.401C725.501 112.372 721.422 112.954 716.956 113.148C712.489 113.537 708.022 113.537 703.362 113.537Z" fill="white"/>
<path d="M867.462 111.789H841.051L836.973 104.215H805.318L801.239 111.789H784.344L811.532 62.6558H840.274L867.462 111.789ZM830.758 92.7571L821.242 75.4733L811.726 92.7571H830.758Z" fill="white"/>
<path d="M337.29 322.499C311.267 322.499 290.681 318.227 275.34 309.682C257.667 299.778 248.734 284.435 248.734 263.267C248.734 242.099 257.667 226.757 275.34 217.047C290.681 208.502 311.267 204.23 337.29 204.23C360.789 204.23 380.403 206.949 395.551 212.386C414.388 219.183 423.71 229.865 423.71 244.43H364.09C361.954 239.381 358.652 235.885 354.186 234.137C349.719 232.389 344.087 231.612 337.29 231.612C327.192 231.612 319.618 234.137 314.374 239.38C309.131 244.43 306.606 252.392 306.606 263.267C306.606 274.143 309.131 282.105 314.374 287.154C319.618 292.204 327.192 294.922 337.29 294.922C351.273 294.922 360.594 290.067 365.061 280.163H334.96L338.844 256.665H423.71V318.421H398.27L396.522 299.195C390.696 306.574 382.733 312.206 372.829 316.285C362.925 320.557 351.078 322.499 337.29 322.499Z" fill="white"/>
<path d="M617.524 318.421H558.487L549.165 301.525H478.475L469.153 318.421H431.478L492.263 208.308H556.739L617.524 318.421ZM535.182 276.085L514.014 237.633L492.652 276.085H535.182Z" fill="white"/>
<path d="M699.089 322.499C674.037 322.499 654.617 318.81 640.828 311.624C624.127 302.885 615.776 288.125 615.776 267.346V208.502H673.454V272.395C673.454 280.551 675.591 286.377 680.057 289.873C684.524 293.369 690.738 295.311 698.895 295.311C707.051 295.311 713.266 293.563 717.732 289.873C722.199 286.377 724.335 280.551 724.335 272.395V208.502H782.013V267.54C782.013 288.319 773.663 303.079 757.155 311.818C743.561 319.003 724.141 322.499 699.089 322.499Z" fill="white"/>
<path d="M877.755 322.499C867.657 322.499 857.558 322.111 847.654 321.334C837.749 320.557 829.01 318.809 821.048 316.285C813.086 313.76 806.871 309.876 802.016 304.827C797.355 299.778 795.025 292.98 795.025 284.241H852.703C852.703 288.319 853.674 291.232 855.81 292.98C857.947 294.728 860.665 296.087 864.355 296.67C868.045 297.253 872.318 297.641 877.173 297.641H882.999C888.436 297.641 892.709 297.253 896.399 296.476C900.477 295.699 902.419 293.175 902.419 289.291C902.419 286.183 899.312 284.047 892.903 282.494C886.883 281.328 879.503 279.969 870.376 278.803C859.694 277.444 848.819 275.502 837.555 273.172C826.292 270.841 816.97 267.152 809.008 262.102C800.657 256.859 796.384 249.285 796.384 239.38C796.384 231.612 798.52 225.398 802.987 220.543C807.26 215.688 813.474 212.192 821.242 209.668C829.01 207.337 837.944 205.784 847.654 205.201C857.558 204.618 867.462 204.424 877.755 204.424C888.048 204.424 897.952 204.812 907.662 205.589C917.372 206.366 926.112 208.114 933.685 210.639C941.454 213.163 947.474 217.047 952.135 222.096C956.796 227.146 959.126 233.943 959.126 242.682H902.613C902.613 238.604 901.642 235.691 899.7 233.943C897.758 232.001 894.845 230.835 890.961 230.253C887.077 229.67 881.057 229.282 872.512 229.282C867.462 229.282 862.996 229.67 859.694 230.447C856.199 231.224 854.451 233.554 854.451 237.438V238.604C854.839 241.128 858.141 243.07 863.967 244.624C869.987 246.178 877.561 247.537 886.689 248.702C897.37 250.256 908.245 252.392 919.314 254.916C930.384 257.441 939.9 261.325 947.862 266.18C956.213 271.618 960.291 278.804 960.291 288.125C960.291 296.476 957.961 302.885 953.494 307.74C949.027 312.595 942.813 316.09 934.851 318.227C926.888 320.363 917.955 321.722 908.051 322.111C898.146 322.305 888.048 322.499 877.755 322.499Z" fill="white"/>
<path d="M1054.28 322.499C1044.19 322.499 1034.09 322.111 1024.18 321.334C1014.28 320.557 1005.54 318.809 997.578 316.285C989.616 313.76 983.401 309.876 978.546 304.827C973.885 299.778 971.555 292.98 971.555 284.241H1029.23C1029.23 288.319 1030.2 291.232 1032.34 292.98C1034.48 294.728 1037.2 296.087 1040.88 296.67C1044.57 297.253 1048.85 297.641 1053.7 297.641H1059.53C1064.97 297.641 1069.24 297.253 1072.93 296.476C1077.01 295.699 1078.95 293.175 1078.95 289.291C1078.95 286.183 1075.84 284.047 1069.43 282.494C1063.41 281.328 1056.03 279.969 1046.91 278.803C1036.22 277.444 1025.35 275.502 1014.09 273.172C1002.82 270.841 993.5 267.152 985.537 262.102C977.187 256.859 972.914 249.285 972.914 239.38C972.914 231.612 975.05 225.398 979.517 220.543C983.79 215.688 990.004 212.192 997.772 209.668C1005.54 207.337 1014.47 205.784 1024.18 205.201C1034.09 204.618 1043.99 204.424 1054.28 204.424C1064.58 204.424 1074.48 204.812 1084.19 205.589C1093.9 206.366 1102.64 208.114 1110.22 210.639C1117.98 213.163 1124 217.047 1128.66 222.096C1133.33 227.146 1135.66 233.943 1135.66 242.682H1079.34C1079.34 238.604 1078.37 235.691 1076.42 233.943C1074.48 232.001 1071.57 230.835 1067.68 230.253C1063.8 229.67 1057.78 229.282 1049.24 229.282C1044.19 229.282 1039.72 229.67 1036.42 230.447C1032.92 231.224 1031.17 233.554 1031.17 237.438V238.604C1031.56 241.128 1034.86 243.07 1040.69 244.624C1046.71 246.178 1054.29 247.537 1063.41 248.702C1074.09 250.256 1084.97 252.392 1096.04 254.916C1107.11 257.441 1116.62 261.325 1124.59 266.18C1132.94 271.618 1137.02 278.804 1137.02 288.125C1137.02 296.476 1134.68 302.885 1130.22 307.74C1125.75 312.595 1119.54 316.09 1111.57 318.227C1103.61 320.363 1094.68 321.722 1084.77 322.111C1074.68 322.305 1064.58 322.499 1054.28 322.499Z" fill="white"/>
<path d="M1209.84 318.421H1152.16V208.502H1209.84V318.421Z" fill="white"/>
<path d="M1405.01 318.421H1345.98L1336.66 301.525H1265.97L1256.64 318.421H1219.16L1279.95 208.308H1344.42L1405.01 318.421ZM1322.67 276.085L1301.5 237.633L1280.14 276.085H1322.67Z" fill="white"/>
<path d="M1580.57 318.421H1513.57L1447.74 244.43V318.421H1414.34V208.502H1481.53L1547.17 282.494V208.502H1580.57V318.421Z" fill="white"/>
<path d="M1809.15 318.421H1692.24V208.502H1809.15C1819.25 208.502 1828.18 211.027 1835.95 215.882C1843.72 220.931 1849.93 227.534 1854.59 235.691C1859.06 244.041 1861.39 253.169 1861.39 263.462C1861.39 273.56 1859.25 282.882 1854.79 291.233C1850.32 299.584 1844.11 306.186 1836.14 311.041C1828.18 316.091 1819.25 318.421 1809.15 318.421ZM1775.55 292.398C1783.71 292.398 1790.51 289.679 1795.75 284.047C1800.99 278.415 1803.71 271.618 1803.71 263.462C1803.71 255.305 1800.99 248.508 1795.75 242.876C1790.51 237.438 1783.71 234.525 1775.55 234.525H1750.11V292.204H1775.55V292.398Z" fill="white"/>
<path d="M1933.24 318.421H1875.57V208.502H1933.24V318.421Z" fill="white"/>
<path d="M2030.73 322.499C2020.64 322.499 2010.54 322.111 2000.63 321.334C1990.73 320.557 1981.99 318.809 1974.03 316.285C1966.06 313.76 1959.85 309.876 1955 304.827C1950.33 299.778 1948 292.98 1948 284.241H2005.68C2005.68 288.319 2006.65 291.232 2008.79 292.98C2010.93 294.728 2013.64 296.087 2017.33 296.67C2021.02 297.253 2025.3 297.641 2030.15 297.641H2035.98C2041.42 297.641 2045.69 297.253 2049.38 296.476C2053.46 295.699 2055.4 293.175 2055.4 289.291C2055.4 286.183 2052.29 284.047 2045.88 282.494C2039.86 281.328 2032.48 279.969 2023.35 278.803C2012.67 277.444 2001.8 275.502 1990.53 273.172C1979.27 270.841 1969.95 267.152 1961.99 262.102C1953.64 256.859 1949.36 249.285 1949.36 239.38C1949.36 231.612 1951.5 225.398 1955.97 220.543C1960.24 215.688 1966.45 212.192 1974.22 209.668C1981.99 207.337 1990.92 205.784 2000.63 205.201C2010.54 204.618 2020.44 204.424 2030.73 204.424C2041.03 204.424 2050.93 204.812 2060.64 205.589C2070.35 206.366 2079.09 208.114 2086.66 210.639C2094.43 213.163 2100.45 217.047 2105.11 222.096C2109.77 227.146 2112.11 233.943 2112.11 242.682H2055.59C2055.59 238.604 2054.62 235.691 2052.68 233.943C2050.74 232.001 2047.82 230.835 2043.94 230.253C2040.06 229.67 2034.04 229.282 2025.49 229.282C2020.44 229.282 2015.98 229.67 2012.67 230.447C2009.18 231.224 2007.43 233.554 2007.43 237.438V238.604C2007.82 241.128 2011.12 243.07 2016.95 244.624C2022.97 246.178 2030.54 247.537 2039.67 248.702C2050.35 250.256 2061.22 252.392 2072.29 254.916C2083.36 257.441 2092.88 261.325 2100.84 266.18C2109.19 271.618 2113.27 278.804 2113.27 288.125C2113.27 296.476 2110.94 302.885 2106.47 307.74C2102.01 312.595 2095.79 316.09 2087.83 318.227C2079.87 320.363 2070.93 321.722 2061.03 322.111C2051.13 322.305 2041.03 322.499 2030.73 322.499Z" fill="white"/>
<path d="M2230.18 318.421H2172.5V234.525H2120.84V208.502H2281.84V234.72H2230.18V318.421Z" fill="white"/>
<path d="M2457.98 318.421H2401.47L2374.67 283.465H2350.39V318.421H2292.71V208.502H2423.61C2434.29 208.502 2442.83 212.192 2449.24 219.378C2455.84 226.563 2459.14 235.496 2459.14 246.178C2459.14 255.111 2456.43 263.073 2450.99 269.482C2445.55 276.085 2438.56 280.357 2430.21 282.688L2457.98 318.421ZM2388.84 257.441C2392.34 257.441 2395.45 256.471 2397.97 254.334C2400.5 252.198 2401.66 249.479 2401.66 245.984C2401.66 238.992 2397.97 235.108 2390.4 234.72H2350.78V257.441H2388.84Z" fill="white"/>
<path d="M2531.19 318.421H2473.52V208.502H2531.19V318.421Z" fill="white"/>
<path d="M2688.69 318.421H2550.23V208.502H2684.81C2692.38 208.502 2698.79 211.221 2703.84 216.659C2708.89 222.097 2711.22 228.7 2711.22 236.273C2711.22 241.905 2709.67 246.76 2706.56 251.227C2703.45 255.694 2699.37 258.995 2694.52 261.325C2700.73 263.267 2705.98 266.763 2710.25 271.813C2714.52 276.862 2716.46 282.688 2716.46 289.291C2716.46 297.447 2713.74 304.244 2708.69 309.876C2703.45 315.702 2696.65 318.421 2688.69 318.421ZM2643.44 251.421C2645.97 251.421 2648.49 250.45 2650.43 248.702C2652.57 246.954 2653.54 244.624 2653.54 242.1C2653.54 239.575 2652.76 237.244 2651.02 235.496C2649.46 233.749 2647.33 232.778 2644.8 232.778H2607.9V251.421H2643.44ZM2648.69 294.34C2651.79 294.34 2654.12 293.369 2656.07 291.233C2657.81 289.097 2658.78 286.572 2658.78 283.659C2658.78 280.746 2657.62 278.221 2655.29 276.085C2652.96 273.949 2650.43 272.978 2647.52 272.978H2607.9V294.34H2648.69Z" fill="white"/>
<path d="M2812.2 322.499C2787.15 322.499 2767.73 318.81 2753.94 311.624C2737.24 302.885 2728.89 288.125 2728.89 267.346V208.502H2786.57V272.395C2786.57 280.551 2788.71 286.377 2793.17 289.873C2797.64 293.369 2803.85 295.311 2812.01 295.311C2820.17 295.311 2826.38 293.563 2830.85 289.873C2835.31 286.377 2837.45 280.551 2837.45 272.395V208.502H2895.13V267.54C2895.13 288.319 2886.78 303.079 2870.27 311.818C2856.68 319.003 2837.26 322.499 2812.2 322.499Z" fill="white"/>
<path d="M3013.98 318.421H2956.3V234.525H2904.64V208.502H3065.64V234.72H3013.98V318.421Z" fill="white"/>
<path d="M3134.39 318.421H3076.71V208.502H3134.39V318.421Z" fill="white"/>
<path d="M3235.76 322.499C3209.74 322.499 3189.35 318.227 3174.2 309.682C3156.91 299.972 3148.37 284.435 3148.37 263.267C3148.37 242.099 3156.91 226.757 3174.2 217.047C3189.15 208.502 3209.74 204.23 3235.76 204.23C3261.59 204.23 3282.17 208.502 3297.13 217.047C3314.41 226.757 3323.15 242.293 3323.15 263.267C3323.15 284.435 3314.41 299.972 3297.13 309.682C3281.98 318.227 3261.59 322.499 3235.76 322.499ZM3235.76 295.117C3245.86 295.117 3253.43 292.592 3258.09 287.349C3262.95 282.299 3265.28 274.337 3265.28 263.462C3265.28 252.586 3262.95 244.624 3258.09 239.575C3253.24 234.525 3245.86 231.807 3235.76 231.807C3225.66 231.807 3218.09 234.331 3213.43 239.575C3208.57 244.624 3206.24 252.586 3206.24 263.462C3206.24 274.337 3208.57 282.299 3213.43 287.349C3218.09 292.398 3225.47 295.117 3235.76 295.117Z" fill="white"/>
<path d="M3503.18 318.421H3436.18L3370.34 244.43V318.421H3336.94V208.502H3404.13L3469.77 282.494V208.502H3503.18V318.421Z" fill="white"/>
<path d="M3763.99 386.974H3703.79V326.771H3763.99V386.974ZM3709.61 381.148H3758.16V332.597H3709.61V381.148ZM3763.99 278.027H3703.79V217.824H3758.16V163.447H3812.54V60.3258H3655.04V114.702H3594.84V54.4997H3649.22V0.123047H3818.37V54.4997H3872.74V169.273H3818.37V223.65H3763.99V278.027ZM3709.61 272.201H3758.16V223.65H3709.61V272.201ZM3763.99 217.824H3812.54V169.273H3763.99V217.824ZM3818.56 163.253H3867.11V60.1319H3818.56V163.253ZM3600.67 108.876H3649.22V60.3258H3600.67V108.876ZM3655.24 54.3058H3812.74V5.7552H3655.24V54.3058Z" fill="white"/>
</svg>
