<svg width="3333" height="846" viewBox="0 0 3333 846" fill="none" xmlns="http://www.w3.org/2000/svg">
<path d="M29.6737 323.82V316.635V309.449V302.263H22.4883V309.449H15.3027V316.635H8.11727V323.82H0.931641V316.635V309.449V302.263V295.078V287.892H8.11727V295.078V302.263V309.449H15.3027V302.263H22.4883V295.078H29.6737V287.892H36.8591V295.078V302.263V309.449V316.635V323.82H29.6737ZM29.6737 288.281H22.4883H15.3027H8.11727V281.095H15.3027H22.4883H29.6737V288.281ZM22.4883 323.82H29.6737V331.006H22.4883H15.3027H8.11727V323.82H15.3027H22.4883Z" fill="white"/>
<path d="M66.5721 295.273V288.087H73.7575V295.273H66.5721ZM94.9256 323.82H102.111V331.006H94.9256H87.7402H80.5546H73.3692H66.1838V323.82H73.3692V316.635H80.5546V323.82H87.7402H94.9256ZM94.9256 288.281H87.7402H80.5546H73.3692V281.095H80.5546H87.7402H94.9256V288.281ZM80.749 316.635V309.449H87.9344V316.635H80.749ZM87.9344 309.643V302.457H95.1198V309.643H87.9344ZM94.9256 302.457V295.273V288.087H102.111V295.273V302.457H94.9256Z" fill="white"/>
<path d="M1617.47 538.413H1546.2L1484.44 469.277V538.413H1445.21V422.475H1516.49L1578.05 491.61V422.475H1617.28V538.413H1617.47ZM1548.92 532.587H1611.65V428.301H1584.07V506.953L1514.16 428.301H1451.23V532.587H1478.81V453.935L1548.92 532.587Z" fill="white"/>
<path d="M1814.78 538.413H1749.14L1739.82 521.518H1672.43L1663.11 538.413H1618.83L1682.72 422.475H1750.69L1814.78 538.413ZM1752.64 532.587H1804.88L1747.39 428.301H1686.41L1628.93 532.587H1659.81L1669.13 515.692H1743.31L1752.64 532.587ZM1732.44 496.078H1680.01L1706.42 448.692L1732.44 496.078ZM1689.91 490.252H1722.73L1706.42 460.732L1689.91 490.252Z" fill="white"/>
<path d="M1904.89 538.413H1841.39V454.518H1789.73V422.475H1956.55V454.518H1904.89V538.413ZM1847.21 532.587H1899.07V448.692H1950.72V428.301H1795.56V448.692H1847.21V532.587Z" fill="white"/>
<path d="M2045.88 542.492C2020.44 542.492 2000.44 538.802 1986.26 531.228C1968.59 522.101 1959.66 506.37 1959.66 484.425V422.475H2023.16V489.281C2023.16 496.466 2025.1 501.515 2028.6 504.428C2032.48 507.535 2038.11 509.089 2045.69 509.089C2053.26 509.089 2058.89 507.535 2062.78 504.428C2066.47 501.515 2068.22 496.272 2068.22 489.281V422.475H2131.72V484.425C2131.72 506.176 2122.79 521.907 2105.31 531.228C2091.33 538.802 2071.32 542.492 2045.88 542.492ZM1965.68 428.301V484.425C1965.68 504.234 1973.25 517.828 1989.18 525.985C2002.38 532.976 2021.61 536.471 2046.08 536.471C2070.55 536.471 2089.77 532.976 2102.98 525.985C2118.71 517.828 2126.28 504.234 2126.28 484.425V428.301H2074.43V489.281C2074.43 498.214 2071.91 504.816 2066.66 509.089C2061.81 512.973 2054.82 515.109 2045.88 515.109C2036.95 515.109 2030.15 513.167 2025.1 509.089C2020.05 505.01 2017.33 498.408 2017.33 489.281V428.301H1965.68Z" fill="white"/>
<path d="M2317.18 538.413H2253.29L2226.49 503.457H2206.68V538.413H2143.18V422.475H2276.98C2288.44 422.475 2297.76 426.358 2304.75 434.321C2311.75 442.089 2315.24 451.799 2315.24 463.063C2315.24 472.773 2312.33 481.124 2306.5 488.31C2301.65 494.136 2295.43 498.602 2288.25 501.127L2317.18 538.413ZM2256.2 532.587H2305.34L2278.54 497.825L2282.81 496.66C2290.58 494.718 2297.18 490.446 2302.04 484.425C2307.08 478.405 2309.41 471.414 2309.41 462.869C2309.41 452.964 2306.5 444.808 2300.29 438.011C2294.27 431.408 2286.5 428.107 2276.79 428.107H2148.81V532.393H2200.66V497.436H2229.21L2256.2 532.587ZM2242.03 477.434H2200.86V448.886H2243.58C2252.71 449.468 2257.56 454.518 2257.56 463.063C2257.56 467.53 2256.01 471.025 2252.9 473.744C2249.99 476.075 2246.3 477.434 2242.03 477.434ZM2206.68 471.608H2242.03C2244.94 471.608 2247.27 470.831 2249.21 469.277C2250.96 467.723 2251.93 465.782 2251.93 463.063C2251.93 457.626 2249.41 455.1 2243.39 454.712H2206.68V471.608Z" fill="white"/>
<path d="M2477.4 538.413H2323.98V422.475H2477.4V453.159H2387.48V465.005H2468.47L2463.42 494.33H2387.48V505.011H2477.4V538.413ZM2329.61 532.587H2471.38V510.837H2381.46V488.504H2458.37L2461.48 470.831H2381.46V447.333H2471.38V428.301H2329.61V532.587Z" fill="white"/>
<path d="M2699.76 538.413H2579.94V422.475H2699.76C2710.25 422.475 2719.96 425.193 2728.12 430.437C2736.27 435.68 2742.87 442.672 2747.73 451.411C2752.39 460.15 2754.92 469.86 2754.92 480.541C2754.92 491.223 2752.58 500.933 2747.92 509.672C2743.26 518.411 2736.66 525.402 2728.31 530.645C2719.96 535.694 2710.25 538.413 2699.76 538.413ZM2585.76 532.587H2699.76C2709.28 532.587 2717.82 530.257 2725.2 525.596C2732.58 520.935 2738.6 514.721 2742.68 506.759C2746.95 498.796 2749.09 490.057 2749.09 480.347C2749.09 470.637 2746.95 461.898 2742.68 454.13C2738.41 446.362 2732.58 439.953 2725.2 435.292C2717.82 430.631 2709.28 428.301 2699.96 428.301H2585.96V532.587H2585.76ZM2666.16 512.196H2637.81V448.692H2666.16C2675.1 448.692 2682.67 451.799 2688.5 457.819C2694.32 463.84 2697.24 471.414 2697.24 480.347C2697.24 489.28 2694.32 496.854 2688.5 502.875C2682.48 509.089 2675.1 512.196 2666.16 512.196ZM2643.44 506.37H2665.97C2673.35 506.37 2679.37 503.846 2684.03 498.991C2688.89 493.941 2691.22 487.921 2691.22 480.347C2691.22 472.967 2688.89 466.753 2684.03 461.898C2679.18 456.849 2673.35 454.518 2665.97 454.518H2643.44V506.37Z" fill="white"/>
<path d="M2848.52 542.492C2822.11 542.492 2800.94 538.025 2785.6 529.286C2767.54 518.993 2758.41 502.486 2758.41 480.347C2758.41 458.208 2767.54 441.895 2785.6 431.602C2800.94 422.863 2822.11 418.396 2848.52 418.396C2874.74 418.396 2895.91 422.863 2911.25 431.602C2929.5 441.895 2938.63 458.208 2938.63 480.347C2938.63 502.486 2929.31 518.993 2911.25 529.286C2895.91 538.025 2874.74 542.492 2848.52 542.492ZM2848.52 424.417C2823.08 424.417 2802.88 428.495 2788.51 436.846C2772.2 446.167 2764.24 460.344 2764.24 480.541C2764.24 500.738 2772.2 515.109 2788.51 524.431C2803.08 532.588 2823.27 536.86 2848.52 536.86C2873.77 536.86 2893.96 532.782 2908.34 524.431C2924.84 515.109 2932.8 500.738 2932.8 480.541C2932.8 460.344 2924.84 446.167 2908.34 436.846C2893.96 428.495 2873.77 424.417 2848.52 424.417ZM2848.52 514.914C2837.65 514.914 2829.29 512.002 2824.05 506.37C2818.81 500.738 2816.09 491.999 2816.09 480.541C2816.09 469.083 2818.81 460.344 2824.05 454.712C2829.29 448.886 2837.65 446.167 2848.52 446.167C2859.4 446.167 2867.75 449.08 2872.99 454.712C2878.23 460.344 2880.95 469.083 2880.95 480.541C2880.95 491.999 2878.23 500.738 2872.99 506.37C2867.75 512.002 2859.4 514.914 2848.52 514.914ZM2848.52 451.799C2839.2 451.799 2832.4 454.129 2828.32 458.596C2824.05 463.062 2821.91 470.443 2821.91 480.541C2821.91 490.446 2824.05 497.825 2828.32 502.486C2832.4 506.952 2839.39 509.283 2848.52 509.283C2857.65 509.283 2864.64 506.952 2868.72 502.486C2872.99 498.019 2875.13 490.64 2875.13 480.541C2875.13 470.637 2872.99 463.257 2868.72 458.596C2864.64 453.935 2857.84 451.799 2848.52 451.799Z" fill="white"/>
<path d="M3100.4 538.413H2946.98V422.475H3100.4V453.159H3010.49V465.005H3091.47L3086.42 494.33H3010.49V505.011H3100.4V538.413ZM2952.61 532.587H3094.38V510.837H3004.47V488.504H3081.37L3084.48 470.831H3004.47V447.333H3094.38V428.301H2952.61V532.587Z" fill="white"/>
<path d="M3191.68 542.492C3181.38 542.492 3171.29 542.103 3161.38 541.132C3151.28 540.355 3142.15 538.608 3134 535.889C3125.65 533.17 3118.85 529.091 3113.8 523.654C3108.56 518.022 3106.03 510.449 3106.03 501.127V498.214H3169.54V501.127C3169.54 504.234 3170.31 506.564 3171.67 507.73C3173.23 509.283 3175.75 510.255 3178.66 510.837C3182.16 511.42 3186.24 511.808 3190.9 511.808H3196.73C3201.77 511.808 3206.05 511.42 3209.35 510.643C3212.07 510.06 3213.04 508.894 3213.04 506.176C3213.04 505.01 3211.1 503.457 3205.85 502.291C3200.03 501.126 3192.65 499.961 3183.71 498.796C3173.03 497.437 3161.96 495.495 3150.7 493.165C3139.24 490.834 3129.34 486.95 3121.18 481.707C3111.86 475.881 3107.2 467.529 3107.2 456.654C3107.2 448.109 3109.72 441.118 3114.38 435.875C3119.04 430.631 3125.65 426.747 3134 424.223C3141.96 421.698 3151.09 420.145 3161.19 419.562C3180.99 418.397 3202.16 418.396 3221.58 419.95C3231.49 420.727 3240.42 422.475 3248.38 425.194C3256.54 427.913 3263.14 431.99 3268.19 437.428C3273.24 443.06 3275.96 450.634 3275.96 459.956V462.869H3213.62V459.956C3213.62 456.849 3212.84 454.518 3211.48 453.353C3209.93 451.799 3207.6 450.828 3204.3 450.246C3200.61 449.663 3194.59 449.275 3186.43 449.275C3181.58 449.275 3177.5 449.663 3174.2 450.44C3172.45 450.828 3171.28 451.8 3171.28 454.518V455.489C3171.67 456.266 3173.42 457.625 3178.66 458.985C3184.49 460.344 3192.06 461.704 3201 463.063C3211.68 464.617 3222.75 466.752 3233.82 469.277C3245.28 471.996 3255.18 475.88 3263.34 480.929C3272.46 486.755 3277.13 495.106 3277.13 505.205C3277.13 514.138 3274.6 521.518 3269.55 526.761C3264.7 532.005 3257.9 535.695 3249.55 538.025C3241.39 540.162 3232.07 541.521 3221.97 541.91C3212.07 542.298 3201.77 542.492 3191.68 542.492ZM3111.86 504.04C3112.25 510.449 3114.38 515.692 3118.07 519.576C3122.35 524.237 3128.37 527.927 3135.75 530.257C3143.32 532.782 3152.25 534.335 3161.77 535.306C3181.38 537.054 3202.16 536.666 3221.78 535.889C3231.49 535.501 3240.23 534.141 3247.99 532.199C3255.37 530.257 3261.2 526.956 3265.28 522.489C3269.16 518.217 3271.3 512.391 3271.3 504.817C3271.3 496.66 3267.61 490.251 3260.23 485.396C3252.66 480.736 3243.33 477.046 3232.65 474.521C3221.58 471.996 3210.71 469.86 3200.22 468.306C3191.09 467.141 3183.33 465.588 3177.31 464.229C3172.64 463.063 3166.43 460.927 3165.46 455.877V455.489V454.324C3165.46 449.275 3168.18 445.779 3172.84 444.614C3176.53 443.643 3180.99 443.254 3186.43 443.254C3195.17 443.254 3201.39 443.643 3205.27 444.225C3209.54 445.002 3213.04 446.556 3215.37 448.692C3217.31 450.634 3218.67 453.352 3219.06 456.654H3269.75C3269.36 450.245 3267.22 445.003 3263.73 440.924C3259.45 436.263 3253.63 432.574 3246.44 430.243C3239.06 427.719 3230.52 426.165 3221 425.388C3201.97 423.834 3181 424.028 3161.38 424.999C3151.86 425.582 3143.13 426.942 3135.55 429.272C3128.37 431.603 3122.54 434.903 3118.66 439.37C3114.77 443.643 3112.83 449.275 3112.83 456.266C3112.83 465.199 3116.52 471.802 3124.09 476.463C3131.67 481.318 3140.99 484.814 3151.67 487.144C3162.74 489.474 3173.62 491.416 3184.3 492.776C3193.42 493.941 3201 495.106 3207.02 496.465C3214.79 498.213 3218.67 501.515 3218.67 505.982C3218.67 511.42 3215.76 514.915 3210.32 516.08C3206.63 516.857 3201.97 517.44 3196.34 517.44H3190.51C3185.46 517.44 3181.19 517.051 3177.31 516.469C3173.03 515.692 3169.73 514.138 3167.21 512.002C3165.07 510.06 3163.91 507.341 3163.32 504.04H3111.86Z" fill="white"/>
<path d="M3332.28 538.413H3282.17V500.349H3332.28V538.413ZM3288 532.587H3326.45V506.175H3288V532.587Z" fill="white"/>
<path d="M1959.85 330.811H1934.02L1924.51 307.507L1916.54 330.811H1890.71L1871.49 281.678H1896.93L1907.61 309.254L1917.13 281.678H1939.65L1950.72 309.254L1959.85 281.678H1975.97L1959.85 330.811Z" fill="white"/>
<path d="M2055.01 330.811H2029.18V311.973H2006.46V330.811H1980.63V281.678H2006.46V300.515H2029.18V281.678H2055.01V330.811Z" fill="white"/>
<path d="M2100.26 332.753C2088.61 332.753 2079.48 330.811 2072.68 327.121C2064.91 322.849 2061.22 315.857 2061.22 306.341C2061.22 296.825 2065.11 290.028 2072.68 285.756C2079.48 281.872 2088.61 280.124 2100.26 280.124C2111.91 280.124 2121.04 282.066 2127.64 285.756C2135.41 290.028 2139.29 297.02 2139.29 306.341C2139.29 315.857 2135.41 322.655 2127.64 327.121C2121.04 330.811 2111.91 332.753 2100.26 332.753ZM2100.26 320.324C2104.73 320.324 2108.22 319.159 2110.36 316.828C2112.49 314.498 2113.46 311.002 2113.46 306.147C2113.46 301.292 2112.49 297.796 2110.36 295.466C2108.22 293.135 2104.92 291.971 2100.26 291.971C2095.6 291.971 2092.3 293.135 2090.16 295.466C2088.02 297.796 2087.05 301.292 2087.05 306.147C2087.05 311.002 2088.02 314.498 2090.16 316.828C2092.49 319.159 2095.79 320.324 2100.26 320.324Z" fill="white"/>
<path d="M2182.41 332.753C2170.75 332.753 2161.63 330.811 2154.83 327.121C2147.06 322.849 2143.37 315.857 2143.37 306.341C2143.37 296.825 2147.26 290.028 2154.83 285.756C2161.63 281.872 2170.75 280.124 2182.41 280.124C2194.06 280.124 2203.19 282.066 2209.79 285.756C2217.56 290.028 2221.44 297.02 2221.44 306.341C2221.44 315.857 2217.56 322.655 2209.79 327.121C2203.19 330.811 2194.06 332.753 2182.41 332.753ZM2182.41 320.324C2186.87 320.324 2190.37 319.159 2192.51 316.828C2194.64 314.498 2195.61 311.002 2195.61 306.147C2195.61 301.292 2194.64 297.796 2192.51 295.466C2190.37 293.135 2187.07 291.971 2182.41 291.971C2177.75 291.971 2174.44 293.135 2172.31 295.466C2170.17 297.796 2169.2 301.292 2169.2 306.147C2169.2 311.002 2170.17 314.498 2172.31 316.828C2174.44 319.159 2177.94 320.324 2182.41 320.324Z" fill="white"/>
<path d="M2264.55 332.753C2252.9 332.753 2243.77 330.811 2236.98 327.121C2229.21 322.849 2225.52 315.857 2225.52 306.341C2225.52 296.825 2229.4 290.028 2236.98 285.756C2243.77 281.872 2252.9 280.124 2264.55 280.124C2276.21 280.124 2285.33 282.066 2291.94 285.756C2299.7 290.028 2303.59 297.02 2303.59 306.341C2303.59 315.857 2299.7 322.655 2291.94 327.121C2285.33 330.811 2276.01 332.753 2264.55 332.753ZM2264.55 320.324C2269.02 320.324 2272.52 319.159 2274.65 316.828C2276.79 314.498 2277.76 311.002 2277.76 306.147C2277.76 301.292 2276.79 297.796 2274.65 295.466C2272.52 293.135 2269.22 291.971 2264.55 291.971C2259.89 291.971 2256.59 293.135 2254.46 295.466C2252.32 297.796 2251.35 301.292 2251.35 306.147C2251.35 311.002 2252.32 314.498 2254.46 316.828C2256.59 319.159 2259.89 320.324 2264.55 320.324Z" fill="white"/>
<path d="M2346.7 332.753C2335.05 332.753 2325.92 330.811 2319.12 327.121C2311.36 322.849 2307.67 315.857 2307.67 306.341C2307.67 296.825 2311.55 290.028 2319.12 285.756C2325.92 281.872 2335.05 280.124 2346.7 280.124C2358.35 280.124 2367.48 282.066 2374.08 285.756C2381.85 290.028 2385.74 297.02 2385.74 306.341C2385.74 315.857 2381.85 322.655 2374.08 327.121C2367.29 330.811 2358.16 332.753 2346.7 332.753ZM2346.7 320.324C2351.17 320.324 2354.66 319.159 2356.8 316.828C2358.94 314.498 2359.91 311.002 2359.91 306.147C2359.91 301.292 2358.94 297.796 2356.8 295.466C2354.66 293.135 2351.36 291.971 2346.7 291.971C2342.04 291.971 2338.74 293.135 2336.6 295.466C2334.47 297.796 2333.5 301.292 2333.5 306.147C2333.5 311.002 2334.47 314.498 2336.6 316.828C2338.74 319.159 2342.04 320.324 2346.7 320.324Z" fill="white"/>
<path d="M2469.83 332.753C2458.37 332.753 2449.24 330.811 2442.64 327.121C2435.06 322.849 2431.37 315.857 2431.37 306.341C2431.37 296.825 2435.06 290.028 2442.64 285.756C2449.24 281.872 2458.17 280.124 2469.83 280.124C2476.23 280.124 2482.25 280.707 2487.69 282.066C2493.13 283.425 2497.6 285.562 2501.09 288.863C2504.59 292.165 2506.92 296.243 2507.89 301.681H2482.06C2481.48 298.573 2480.31 296.049 2478.37 294.689C2476.43 293.136 2473.71 292.359 2470.02 292.359C2465.55 292.359 2462.25 293.524 2460.31 295.855C2458.37 298.185 2457.4 301.681 2457.4 306.536C2457.4 311.391 2458.37 314.886 2460.31 317.217C2462.25 319.547 2465.55 320.712 2470.02 320.712C2473.71 320.712 2476.62 319.936 2478.37 318.382C2480.31 316.829 2481.48 314.498 2482.06 311.391H2507.89C2506.92 316.828 2504.78 321.101 2501.09 324.208C2497.4 327.316 2493.13 329.646 2487.69 331.005C2482.06 331.976 2476.23 332.753 2469.83 332.753Z" fill="white"/>
<path d="M2589.45 330.811H2563.04L2558.96 323.237H2527.31L2523.23 330.811H2506.34L2533.52 281.678H2562.27L2589.45 330.811ZM2552.56 311.973L2543.04 294.689L2533.52 311.973H2552.56Z" fill="white"/>
<path d="M2667.33 330.811H2642.08L2630.04 315.275H2619.17V330.811H2593.34V281.678H2651.79C2656.45 281.678 2660.34 283.232 2663.25 286.533C2666.16 289.835 2667.72 293.718 2667.72 298.573C2667.72 302.652 2666.55 306.147 2664.03 309.06C2661.7 311.973 2658.59 313.915 2654.71 314.886L2667.33 330.811ZM2636.45 303.623C2638.01 303.623 2639.36 303.234 2640.53 302.263C2641.69 301.292 2642.28 300.127 2642.28 298.573C2642.28 295.466 2640.53 293.718 2637.23 293.524H2619.56V303.623H2636.45Z" fill="white"/>
<path d="M2740.35 330.811H2674.32V281.678H2740.35V292.747H2700.15V300.71H2736.08L2734.33 311.196H2700.15V318.577H2740.35V330.811Z" fill="white"/>
<path d="M2782.49 332.753C2778.03 332.753 2773.56 332.559 2769.09 332.171C2764.63 331.782 2760.74 331.005 2757.25 329.84C2753.75 328.675 2750.84 326.927 2748.7 324.791C2746.56 322.46 2745.59 319.548 2745.59 315.664H2771.42C2771.42 317.411 2771.81 318.771 2772.78 319.548C2773.75 320.325 2774.92 320.907 2776.67 321.295C2778.22 321.49 2780.16 321.683 2782.3 321.683H2784.82C2787.15 321.683 2789.29 321.489 2790.84 321.101C2792.59 320.713 2793.56 319.741 2793.56 317.799C2793.56 316.44 2792.2 315.469 2789.29 314.693C2786.57 314.11 2783.27 313.527 2779.19 313.138C2774.34 312.556 2769.48 311.779 2764.63 310.614C2759.77 309.449 2755.3 307.895 2751.81 305.565C2748.12 303.234 2746.18 299.933 2746.18 295.466C2746.18 291.97 2747.15 289.252 2749.09 287.116C2751.03 284.979 2753.75 283.426 2757.25 282.26C2760.74 281.095 2764.63 280.513 2769.09 280.318C2773.56 280.124 2778.03 279.93 2782.49 279.93C2787.15 279.93 2791.62 280.124 2795.89 280.513C2800.16 280.901 2804.05 281.678 2807.54 282.843C2811.04 284.008 2813.76 285.756 2815.89 287.892C2818.03 290.223 2819 293.136 2819 297.02H2793.76C2793.76 295.272 2793.37 293.913 2792.4 293.136C2791.43 292.359 2790.26 291.777 2788.51 291.388C2786.76 291.194 2784.05 291 2780.36 291C2778.02 291 2776.08 291.193 2774.53 291.582C2772.98 291.97 2772.2 292.941 2772.2 294.689V295.272C2772.39 296.438 2773.75 297.214 2776.47 297.991C2779.19 298.768 2782.49 299.35 2786.57 299.739C2791.23 300.516 2796.09 301.292 2801.14 302.457C2806.18 303.623 2810.46 305.371 2813.95 307.507C2817.64 309.837 2819.58 313.139 2819.58 317.217C2819.58 320.907 2818.61 323.82 2816.48 325.956C2814.54 328.092 2811.62 329.646 2808.13 330.617C2804.63 331.588 2800.55 332.17 2796.09 332.364C2791.62 332.559 2787.15 332.753 2782.49 332.753Z" fill="white"/>
<path d="M2865.8 312.167H2845.41C2845.22 311.002 2845.02 309.838 2845.02 308.867C2845.02 307.313 2845.41 305.759 2846.19 304.594C2846.97 303.234 2848.33 302.458 2850.07 301.875C2852.02 301.292 2853.76 300.904 2855.9 300.71C2857.45 300.515 2858.81 300.321 2860.17 299.933C2861.53 299.545 2862.5 299.156 2863.28 298.379C2864.06 297.602 2864.45 296.632 2864.45 295.272C2864.45 293.525 2863.86 292.359 2862.7 291.776C2861.53 290.999 2859.01 290.805 2855.12 290.805C2851.82 290.805 2849.49 291.388 2848.13 292.359C2846.77 293.33 2846.19 295.272 2846.19 298.185H2824.05V297.214C2824.05 292.165 2825.41 288.281 2827.94 285.95C2830.46 283.62 2834.15 281.872 2838.81 281.095C2843.08 280.512 2847.94 280.124 2853.57 280.124H2856.68C2862.89 280.124 2868.33 280.513 2872.8 281.484C2877.46 282.455 2880.95 284.008 2883.48 286.144C2886 288.475 2887.36 291.582 2887.36 295.66C2887.36 298.379 2886.58 300.516 2885.22 302.069C2883.87 303.623 2882.12 304.594 2879.98 305.37C2877.85 306.147 2875.71 306.73 2873.77 307.118C2871.24 307.506 2869.3 308.284 2867.75 308.867C2866.39 309.449 2865.8 310.42 2865.8 311.585V312.167ZM2865.8 330.811H2845.41V317.606H2865.8V330.811Z" fill="white"/>
<path d="M1901.98 732.421L1903.73 734.558L1905.47 736.694L1907.22 738.831L1908.97 740.967L1906.83 742.715L1905.09 740.578L1903.34 738.442L1901.59 736.305L1899.84 734.17L1901.98 732.421ZM1910.33 725.042L1912.08 727.178L1913.82 729.315L1915.57 731.45L1917.32 733.587L1919.07 735.723L1916.93 737.471L1914.8 739.218L1912.66 740.967L1910.52 742.715L1908.78 740.578L1910.91 738.831L1913.05 737.083L1915.18 735.334L1913.44 733.199L1911.69 731.062L1909.94 728.926L1908.19 726.79L1910.33 725.042Z" fill="white"/>
<path d="M1882.36 748.346L1884.5 746.599L1886.64 744.851L1888.77 743.102L1890.52 745.239L1892.66 743.491L1894.4 745.627L1892.27 747.375L1894.02 749.512L1891.88 751.259L1889.74 753.007L1887.61 754.754L1889.36 756.891L1887.22 758.638L1885.47 756.503L1883.72 754.367L1881.98 752.23L1880.23 750.094L1882.36 748.346ZM1886.25 748.928L1884.11 750.677L1885.86 752.812L1888 751.065L1890.13 749.317L1892.27 747.57L1890.52 745.433L1888.38 747.181L1886.25 748.928ZM1889.16 757.28L1891.3 755.532L1893.43 753.783L1895.57 752.036L1897.32 754.172L1895.18 755.92L1893.05 757.667L1890.91 759.416L1889.16 757.28Z" fill="white"/>
<path d="M1861 766.99L1862.56 769.32L1860.23 770.874L1858.67 768.543L1861 766.99ZM1863.33 765.436L1861 766.99L1859.45 764.659L1861.78 763.106L1864.11 761.552L1866.44 759.998L1867.99 762.329L1865.66 763.882L1863.33 765.436ZM1867.99 762.329L1870.32 760.775L1871.88 763.106L1873.43 765.436L1874.98 767.766L1877.31 766.213L1878.87 768.543L1876.54 770.097L1878.09 772.427L1879.65 774.758L1877.31 776.311L1875.76 773.981L1874.21 771.65L1871.88 773.204L1869.55 774.758L1867.22 776.311L1864.89 777.865L1863.33 775.534L1865.66 773.981L1867.99 772.427L1870.32 770.874L1872.65 769.32L1871.1 766.99L1869.55 764.659L1867.99 762.329Z" fill="white"/>
<path d="M1838.09 777.865L1840.42 776.506L1842.75 775.146L1845.08 773.787L1846.44 776.117L1844.11 777.477L1841.78 778.836L1839.45 780.195L1840.8 782.526L1842.16 784.856L1843.52 787.187L1844.88 789.517L1842.55 790.876L1841.19 788.546L1839.83 786.216L1838.47 783.885L1837.11 781.555L1835.76 779.224L1838.09 777.865ZM1846.63 776.117L1848.96 774.758L1850.32 777.088L1851.68 779.419L1853.04 781.749L1854.4 784.079L1852.07 785.439L1850.71 783.108L1849.35 780.778L1847.99 778.448L1846.63 776.117Z" fill="white"/>
<path d="M1821.97 802.334L1819.44 803.499L1818.28 800.975L1820.8 799.81L1823.33 798.644L1824.49 801.169L1821.97 802.334ZM1824.49 794.76L1825.66 797.285L1823.13 798.45L1821.97 795.926L1824.49 794.76ZM1825.66 784.856L1826.82 787.381L1827.99 789.905L1829.15 792.43L1830.32 794.955L1831.48 797.479L1828.96 798.644L1827.79 796.12L1826.63 793.595L1824.1 794.76L1822.94 792.236L1825.46 791.071L1824.3 788.546L1823.13 786.021L1825.66 784.856Z" fill="white"/>
<path d="M1801.58 799.615L1804.1 798.45L1805.27 800.975L1806.43 803.499L1807.6 806.025L1805.07 807.189L1803.91 804.665L1801.38 805.83L1798.86 806.996L1796.33 808.16L1797.5 810.685L1794.97 811.851L1793.81 809.325L1792.64 806.801L1795.17 805.636L1797.69 804.47L1800.22 803.305L1802.74 802.141L1801.58 799.615ZM1796.33 801.752L1793.81 802.917L1792.64 800.392L1795.17 799.228L1797.69 798.062L1800.22 796.897L1801.38 799.421L1798.86 800.586L1796.33 801.752ZM1797.11 810.491L1799.63 809.325L1802.16 808.16L1804.68 806.996L1805.85 809.52L1803.32 810.685L1800.8 811.851L1798.27 813.015L1797.11 810.491Z" fill="white"/>
<path d="M1770.11 812.044L1771.09 814.764L1768.37 815.735L1767.4 813.015L1770.11 812.044ZM1772.64 811.073L1769.92 812.044L1768.95 809.325L1771.67 808.354L1774.39 807.383L1777.11 806.412L1779.83 805.441L1780.8 808.16L1778.08 809.131L1775.36 810.102L1772.64 811.073ZM1773.81 822.532L1771.09 823.503L1770.11 820.783L1772.83 819.812L1775.55 818.841L1778.27 817.87L1780.99 816.899L1781.96 819.619L1779.24 820.59L1776.52 821.561L1773.81 822.532ZM1770.89 814.569L1773.61 813.598L1776.33 812.627L1779.05 811.656L1780.02 814.375L1777.3 815.346L1774.58 816.317L1771.86 817.288L1770.89 814.569ZM1779.83 814.375L1782.54 813.404L1783.52 816.123L1780.8 817.094L1779.83 814.375Z" fill="white"/>
<path d="M1723.7 825.056L1724.28 827.775L1724.87 830.493L1725.45 833.213L1726.03 835.932L1723.31 836.514L1722.73 833.795L1722.15 831.077L1721.56 828.358L1720.98 825.638L1723.7 825.056ZM1725.84 821.754L1726.42 824.474L1723.7 825.056L1723.12 822.338L1725.84 821.754ZM1726.42 824.474L1729.14 823.891L1729.72 826.609L1730.3 829.329L1730.89 832.048L1731.47 834.766L1728.75 835.349L1728.17 832.63L1727.58 829.911L1727 827.193L1726.42 824.474ZM1731.27 820.396L1731.86 823.114L1729.14 823.696L1728.56 820.978L1731.27 820.396ZM1731.86 823.114L1734.58 822.532L1735.16 825.251L1735.74 827.969L1736.32 830.688L1736.91 833.406L1734.19 833.99L1733.6 831.271L1733.02 828.551L1732.44 825.833L1731.86 823.114Z" fill="white"/>
<path d="M1698.26 826.998L1700.98 826.609L1703.7 826.222L1706.42 825.833L1706.81 828.551L1709.52 828.164L1709.91 830.882L1707.19 831.271L1707.58 833.99L1704.86 834.377L1702.14 834.766L1699.43 835.155L1699.81 837.874L1697.1 838.262L1696.71 835.543L1696.32 832.824L1695.93 830.106L1695.54 827.387L1698.26 826.998ZM1701.56 829.329L1698.84 829.717L1699.23 832.435L1701.95 832.048L1704.67 831.659L1707.39 831.271L1707 828.551L1704.28 828.94L1701.56 829.329ZM1700.2 838.068L1702.92 837.679L1705.64 837.291L1708.36 836.903L1708.75 839.621L1706.03 840.01L1703.31 840.398L1700.59 840.787L1700.2 838.068Z" fill="white"/>
<path d="M1672.63 824.667L1672.82 827.387L1673.01 830.105L1675.73 829.911L1678.45 829.717L1681.17 829.522L1681.36 832.242L1678.65 832.435L1675.93 832.63L1673.21 832.824L1673.4 835.543L1673.6 838.261L1673.79 840.981L1673.98 843.7L1671.27 843.894L1671.07 841.174L1670.88 838.456L1670.68 835.737L1670.49 833.018L1670.3 830.3L1670.1 827.58L1669.91 824.862L1672.63 824.667ZM1675.54 824.279L1672.82 824.474L1672.63 821.754L1675.34 821.561L1678.06 821.366L1680.78 821.172L1680.98 823.891L1678.26 824.085L1675.54 824.279ZM1680.98 823.696L1683.69 823.503L1683.89 826.221L1681.17 826.416L1680.98 823.696ZM1681.75 832.047L1684.47 831.853L1684.67 834.572L1684.86 837.29L1685.05 840.01L1685.25 842.729L1682.53 842.923L1682.34 840.203L1682.14 837.485L1681.95 834.766L1681.75 832.047Z" fill="white"/>
<path d="M1659.03 831.271L1659.23 833.99L1656.51 834.184L1656.31 831.464L1659.03 831.271Z" fill="white"/>
<path d="M1611.26 831.271L1613.98 831.464L1616.7 831.659L1619.41 831.853L1619.22 834.572L1621.94 834.766L1621.74 837.485L1619.03 837.291L1618.83 840.01L1616.11 839.816L1613.39 839.621L1610.68 839.427L1610.48 842.146L1607.76 841.952L1607.96 839.233L1608.15 836.514L1608.34 833.795L1608.54 831.077L1611.26 831.271ZM1610.68 842.34L1613.39 842.534L1616.11 842.729L1618.83 842.923L1618.64 845.642L1615.92 845.447L1613.2 845.253L1610.48 845.059L1610.68 842.34ZM1613.78 834.184L1611.06 833.99L1610.87 836.708L1613.59 836.903L1616.31 837.097L1619.03 837.291L1619.22 834.572L1616.5 834.378L1613.78 834.184Z" fill="white"/>
<path d="M1584.46 842.923L1581.74 842.534L1582.13 839.816L1584.85 840.204L1587.56 840.592L1590.28 840.981L1593 841.369L1592.61 844.088L1589.9 843.7L1587.18 843.311L1584.46 842.923ZM1585.62 831.853L1585.23 834.572L1582.52 834.184L1582.9 831.464L1585.62 831.853ZM1585.43 834.572L1588.15 834.961L1590.87 835.348L1593.59 835.737L1593.2 838.456L1590.48 838.068L1587.76 837.679L1585.04 837.291L1585.43 834.572ZM1588.54 832.048L1585.82 831.659L1586.21 828.94L1588.92 829.329L1591.64 829.717L1594.36 830.106L1597.08 830.493L1596.69 833.213L1593.97 832.824L1591.25 832.435L1588.54 832.048ZM1593.39 838.262L1596.11 838.65L1595.72 841.369L1593 840.981L1593.39 838.262Z" fill="white"/>
<path d="M1551.05 817.677L1550.47 820.395L1549.89 823.114L1549.31 825.833L1548.72 828.551L1548.14 831.271L1547.56 833.989L1546.98 836.708L1544.26 836.126L1541.54 835.543L1538.82 834.961L1536.1 834.377L1536.68 831.659L1533.97 831.076L1534.55 828.358L1535.13 825.638L1535.71 822.92L1538.43 823.503L1537.85 826.221L1537.27 828.94L1536.68 831.659L1539.4 832.242L1542.12 832.824L1544.84 833.406L1545.42 830.688L1546.01 827.969L1546.59 825.25L1543.87 824.667L1541.15 824.085L1538.43 823.503L1539.01 820.783L1541.73 821.366L1544.45 821.949L1547.17 822.532L1547.75 819.812L1548.34 817.094L1551.05 817.677Z" fill="white"/>
<path d="M1510.66 827.387L1507.94 826.609L1508.72 823.891L1511.44 824.667L1514.16 825.445L1513.38 828.163L1510.66 827.387ZM1517.46 823.503L1516.68 826.221L1513.96 825.445L1514.74 822.725L1517.46 823.503ZM1525.23 817.094L1524.45 819.812L1523.67 822.532L1522.9 825.25L1522.12 827.969L1521.34 830.688L1518.62 829.911L1519.4 827.192L1520.18 824.474L1517.46 823.696L1518.23 820.978L1520.95 821.754L1521.73 819.036L1522.51 816.317L1525.23 817.094Z" fill="white"/>
<path d="M1489.69 808.354L1488.72 810.88L1487.74 813.404L1486.77 815.928L1484.25 814.957L1485.22 812.433L1486.19 809.909L1487.16 807.383L1489.69 808.354ZM1486.77 816.317L1489.3 817.288L1491.82 818.259L1494.35 819.23L1493.38 821.754L1490.85 820.783L1488.33 819.812L1485.8 818.841L1486.77 816.317ZM1492.41 809.325L1489.88 808.354L1490.85 805.83L1493.38 806.801L1495.9 807.772L1498.43 808.743L1497.46 811.267L1494.93 810.296L1492.41 809.325ZM1497.65 811.267L1500.17 812.238L1499.2 814.764L1498.23 817.288L1497.26 819.812L1494.74 818.841L1495.71 816.317L1496.68 813.793L1497.65 811.267Z" fill="white"/>
<path d="M1471.24 800.975L1473.76 802.14L1472.6 804.665L1471.43 807.189L1470.27 809.714L1472.79 810.88L1471.63 813.404L1469.1 812.238L1467.94 814.764L1466.77 817.288L1464.25 816.122L1465.41 813.598L1466.58 811.073L1464.05 809.909L1461.53 808.743L1459 807.578L1456.48 806.412L1457.64 803.888L1460.17 805.053L1462.69 806.218L1465.22 807.383L1467.74 808.549L1468.91 806.025L1470.07 803.499L1471.24 800.975ZM1463.66 797.673L1462.5 800.198L1459.97 799.033L1461.14 796.508L1463.66 797.673ZM1466.19 798.644L1463.66 797.479L1464.83 794.955L1467.35 796.12L1469.88 797.285L1472.4 798.45L1471.24 800.975L1468.71 799.81L1466.19 798.644Z" fill="white"/>
<path d="M1440.94 786.41L1439.58 788.934L1438.22 791.459L1436.86 793.984L1434.34 792.624L1435.7 790.1L1437.06 787.575L1438.42 785.05L1440.94 786.41ZM1437.06 793.789L1439.58 795.149L1442.11 796.508L1444.63 797.868L1443.27 800.392L1440.75 799.033L1438.22 797.673L1435.7 796.315L1437.06 793.789ZM1443.27 787.575L1440.75 786.216L1442.11 783.691L1444.63 785.05L1447.16 786.41L1449.68 787.769L1448.32 790.294L1445.8 788.934L1443.27 787.575ZM1448.32 790.294L1450.85 791.653L1449.49 794.178L1448.13 796.702L1446.77 799.228L1444.24 797.868L1445.6 795.344L1446.96 792.818L1448.32 790.294Z" fill="white"/>
<path d="M1415.89 778.448L1414.53 780.778L1412.2 779.419L1413.56 777.088L1415.89 778.448ZM1414.53 780.778L1416.86 782.137L1419.19 783.497L1421.52 784.856L1420.16 787.187L1417.83 785.827L1415.5 784.468L1413.17 783.108L1414.53 780.778ZM1418.8 773.592L1417.44 775.923L1415.11 774.563L1416.47 772.233L1418.8 773.592ZM1421.13 775.146L1418.8 773.787L1420.16 771.456L1422.49 772.816L1424.82 774.175L1427.15 775.534L1425.79 777.865L1423.46 776.506L1421.13 775.146ZM1425.99 778.059L1428.32 779.419L1426.96 781.749L1425.6 784.079L1424.24 786.41L1421.91 785.05L1423.27 782.72L1424.63 780.39L1425.99 778.059Z" fill="white"/>
<path d="M1397.64 759.61L1396.08 761.94L1394.53 764.271L1392.97 766.601L1390.64 765.048L1392.2 762.717L1393.75 760.387L1395.3 758.056L1397.64 759.61ZM1392.78 766.407L1395.11 767.961L1397.44 769.514L1399.77 771.068L1398.22 773.398L1395.89 771.845L1393.56 770.291L1391.23 768.738L1392.78 766.407ZM1399.97 761.164L1397.64 759.61L1399.19 757.28L1401.52 758.833L1403.85 760.387L1406.18 761.94L1404.63 764.271L1402.3 762.717L1399.97 761.164ZM1404.43 764.465L1406.76 766.019L1405.21 768.349L1403.66 770.68L1402.1 773.01L1399.77 771.456L1401.32 769.126L1402.88 766.796L1404.43 764.465Z" fill="white"/>
<path d="M1387.73 748.928L1385.98 751.065L1384.24 753.201L1382.49 755.338L1380.74 757.474L1378.99 759.609L1377.24 761.746L1375.5 763.882L1373.36 762.135L1375.11 759.998L1376.86 757.862L1378.6 755.725L1380.35 753.59L1382.1 751.453L1383.85 749.317L1385.59 747.181L1387.73 748.928Z" fill="white"/>
<path d="M1341.7 727.955L1339.76 726.013L1341.7 724.071L1343.65 726.013L1345.59 727.955L1347.53 729.897L1349.47 731.839L1347.53 733.781L1345.59 731.839L1343.65 729.897L1341.7 727.955ZM1349.47 719.798L1347.53 721.74L1345.59 719.798L1347.53 717.856L1349.47 719.798ZM1347.53 721.934L1349.47 723.876L1351.41 725.818L1353.36 727.76L1351.41 729.702L1349.47 727.76L1347.53 725.818L1345.59 723.876L1347.53 721.934ZM1351.41 721.74L1349.47 719.798L1351.41 717.856L1353.36 719.798L1355.3 721.74L1357.24 723.682L1359.18 725.624L1357.24 727.566L1355.3 725.624L1353.36 723.682L1351.41 721.74ZM1351.8 729.702L1353.75 731.645L1351.8 733.587L1349.86 731.645L1351.8 729.702Z" fill="white"/>
<path d="M1335.49 705.622L1337.43 707.564L1335.49 709.506L1333.55 711.448L1331.61 713.39L1333.55 715.332L1331.61 717.274L1329.66 715.332L1327.72 717.274L1325.78 719.216L1323.84 717.274L1325.78 715.332L1327.72 713.39L1325.78 711.448L1323.84 709.506L1321.9 707.564L1319.95 705.622L1321.9 703.68L1323.84 705.622L1325.78 707.564L1327.72 709.506L1329.66 711.448L1331.61 709.506L1333.55 707.564L1335.49 705.622ZM1329.86 699.601L1327.92 701.543L1325.97 699.601L1327.92 697.659L1329.86 699.601ZM1331.61 701.543L1329.66 699.601L1331.61 697.659L1333.55 699.601L1335.49 701.543L1337.43 703.485L1335.49 705.427L1333.55 703.485L1331.61 701.543Z" fill="white"/>
<path d="M1306.75 685.425L1308.5 687.561L1310.24 689.697L1311.99 691.833L1309.86 693.581L1308.11 691.445L1306.36 689.309L1304.61 687.172L1306.75 685.425ZM1315.49 678.433L1317.24 680.57L1318.98 682.706L1320.73 684.842L1318.59 686.59L1320.34 688.726L1318.21 690.474L1316.46 688.338L1314.32 690.085L1312.57 687.949L1310.83 685.813L1309.08 683.677L1306.94 685.425L1305.19 683.288L1307.33 681.541L1309.47 679.793L1311.6 678.045L1313.74 676.297L1315.49 678.433ZM1315.1 682.317L1313.35 680.181L1311.21 681.929L1312.96 684.065L1314.71 686.201L1316.46 688.338L1318.59 686.59L1316.85 684.454L1315.1 682.317Z" fill="white"/>
<path d="M1301.31 664.45L1302.86 666.781L1300.53 668.334L1298.2 669.889L1295.87 671.442L1297.43 673.773L1295.1 675.326L1293.54 672.996L1291.21 674.549L1288.88 676.103L1287.33 673.773L1289.66 672.219L1291.99 670.665L1290.44 668.334L1288.88 666.005L1287.33 663.674L1285.77 661.344L1288.1 659.79L1289.66 662.121L1291.21 664.45L1292.77 666.781L1294.32 669.112L1296.65 667.558L1298.98 666.005L1301.31 664.45ZM1296.46 657.653L1294.13 659.208L1292.57 656.877L1294.9 655.323L1296.46 657.653ZM1298.01 659.984L1296.46 657.653L1298.79 656.1L1300.34 658.431L1301.89 660.761L1303.45 663.092L1301.12 664.645L1299.56 662.315L1298.01 659.984Z" fill="white"/>
<path d="M1275.48 640.564L1277.04 642.895L1278.59 645.225L1280.14 647.555L1277.81 649.109L1276.26 646.779L1274.7 644.448L1273.15 642.117L1275.48 640.564ZM1286.94 643.477L1288.49 645.808L1286.16 647.361L1283.83 648.914L1281.5 650.468L1279.95 648.138L1282.28 646.584L1280.73 644.254L1279.17 641.924L1277.62 639.593L1275.29 641.146L1273.73 638.816L1276.06 637.262L1278.39 635.709L1279.95 638.04L1281.5 640.369L1283.06 642.7L1284.61 645.03L1286.94 643.477ZM1284.03 638.622L1282.47 636.291L1284.8 634.738L1286.36 637.069L1287.91 639.398L1289.46 641.729L1287.13 643.283L1285.58 640.953L1284.03 638.622Z" fill="white"/>
<path d="M1260.14 619.396L1258.78 616.871L1261.3 615.512L1262.66 618.036L1264.02 620.561L1265.38 623.086L1266.74 625.61L1264.22 626.97L1262.86 624.445L1261.5 621.92L1260.14 619.396ZM1267.71 615.512L1269.07 618.036L1270.43 620.561L1271.79 623.086L1269.27 624.445L1267.91 621.92L1266.55 619.396L1265.19 616.871L1267.71 615.512ZM1270.04 614.152L1267.52 615.512L1266.16 612.987L1268.68 611.628L1270.04 614.152ZM1269.07 624.057L1270.43 626.581L1267.91 627.941L1266.55 625.416L1269.07 624.057ZM1271.4 616.677L1270.04 614.152L1272.57 612.793L1273.93 615.318L1275.29 617.842L1276.65 620.367L1278.01 622.891L1275.48 624.251L1274.12 621.726L1272.76 619.202L1271.4 616.677Z" fill="white"/>
<path d="M1266.16 600.17L1263.64 601.335L1262.47 598.81L1264.99 597.645L1266.16 600.17Z" fill="white"/>
<path d="M1251.79 566.378L1249.07 567.349L1246.35 568.32L1243.63 569.291L1240.91 570.262L1238.19 571.233L1237.22 568.515L1236.25 565.796L1235.28 563.077L1234.31 560.359L1237.03 559.388L1238 562.106L1238.97 564.825L1239.94 567.544L1242.66 566.573L1245.38 565.602L1248.1 564.631L1250.82 563.66L1251.79 566.378ZM1248.1 555.891L1245.38 556.863L1242.66 557.834L1239.94 558.805L1237.22 559.776L1236.25 557.057L1238.97 556.086L1241.69 555.115L1244.41 554.144L1247.13 553.173L1248.1 555.891Z" fill="white"/>
<path d="M1229.84 534.724L1230.62 537.442L1231.4 540.161L1232.17 542.88L1229.46 543.657L1228.68 540.938L1227.9 538.219L1227.13 535.5L1229.84 534.724ZM1240.53 531.616L1241.3 534.335L1242.08 537.054L1242.86 539.773L1240.14 540.55L1240.91 543.268L1238.19 544.045L1237.42 541.326L1234.7 542.103L1233.92 539.384L1233.15 536.666L1232.37 533.947L1229.65 534.724L1228.87 532.005L1231.59 531.228L1234.31 530.451L1237.03 529.674L1239.75 528.897L1240.53 531.616ZM1238.58 535.112L1237.81 532.393L1235.09 533.17L1235.86 535.889L1236.64 538.608L1237.42 541.326L1240.14 540.55L1239.36 537.831L1238.58 535.112Z" fill="white"/>
<path d="M1233.15 513.167L1233.73 515.886L1231.01 516.469L1228.29 517.051L1225.57 517.634L1226.15 520.353L1223.44 520.935L1222.85 518.216L1220.13 518.799L1217.42 519.382L1216.83 516.663L1219.55 516.08L1222.27 515.498L1221.69 512.779L1221.1 510.06L1220.52 507.341L1219.94 504.622L1222.66 504.04L1223.24 506.759L1223.82 509.477L1224.41 512.196L1224.99 514.915L1227.71 514.332L1230.43 513.75L1233.15 513.167ZM1231.4 505.011L1228.68 505.593L1228.1 502.875L1230.82 502.292L1231.4 505.011ZM1231.98 507.73L1231.4 505.011L1234.12 504.428L1234.7 507.147L1235.28 509.866L1235.86 512.585L1233.15 513.167L1232.56 510.448L1231.98 507.73Z" fill="white"/>
<path d="M1229.84 479.57L1230.23 482.289L1230.62 485.007L1231.01 487.726L1228.29 488.115L1227.9 485.396L1227.51 482.678L1227.13 479.958L1224.41 480.347L1221.69 480.736L1218.97 481.123L1216.25 481.512L1215.86 478.794L1218.58 478.405L1221.3 478.016L1224.02 477.628L1226.74 477.239L1229.46 476.852L1229.84 479.57ZM1228.29 488.115L1228.68 490.834L1225.96 491.222L1223.24 491.61L1220.52 491.999L1217.8 492.388L1217.42 489.668L1220.13 489.28L1222.85 488.892L1225.57 488.504L1228.29 488.115Z" fill="white"/>
<path d="M1213.34 455.489L1213.14 452.77L1215.86 452.576L1216.06 455.295L1216.25 458.014L1213.53 458.208L1213.34 455.489ZM1228.1 465.587L1225.38 465.782L1222.66 465.976L1219.94 466.171L1217.22 466.364L1214.5 466.558L1214.31 463.84L1217.03 463.645L1219.75 463.451L1219.55 460.732L1222.27 460.538L1222.46 463.258L1225.18 463.063L1227.9 462.869L1228.1 465.587ZM1219.36 460.538L1216.64 460.732L1216.44 458.014L1219.16 457.819L1219.36 460.538Z" fill="white"/>
<path d="M1214.89 429.272V431.991V434.709V437.428H1212.17V434.709V431.991V429.272H1214.89ZM1223.44 437.622V440.341H1220.72H1218H1215.28V437.622H1218V434.904V432.185V429.465H1215.28V426.747H1218H1220.72V429.465V432.185V434.904V437.622H1223.44ZM1223.24 431.991V429.272H1225.96V431.991V434.709V437.428H1223.24V434.709V431.991Z" fill="white"/>
<path d="M1212.56 403.248L1212.75 400.53L1215.47 400.724L1215.28 403.443L1215.08 406.161L1214.89 408.881L1214.7 411.599L1211.98 411.405L1212.17 408.686L1212.37 405.968L1212.56 403.248ZM1217.8 411.794L1217.61 414.512L1214.89 414.318L1215.08 411.599L1217.8 411.794ZM1220.91 403.637L1220.72 406.356L1220.52 409.074L1220.33 411.794L1217.61 411.599L1217.8 408.881L1218 406.161L1218.19 403.443L1220.91 403.637ZM1223.63 403.637L1220.91 403.443L1221.11 400.724L1223.82 400.918L1223.63 403.637ZM1223.63 406.55L1223.82 403.831L1226.54 404.026L1226.35 406.744L1226.15 409.463L1225.96 412.182L1225.77 414.9L1223.05 414.707L1223.24 411.987L1223.44 409.269L1223.63 406.55Z" fill="white"/>
<path d="M1227.51 364.214L1227.13 366.933L1224.41 366.544L1221.69 366.156L1218.97 365.767L1216.25 365.379L1216.64 362.66L1219.36 363.049L1222.08 363.437L1224.79 363.825L1227.51 364.214ZM1228.29 358.582L1227.9 361.301L1225.18 360.912L1222.46 360.524L1219.75 360.136L1217.03 359.747L1217.42 357.028L1220.13 357.417L1222.85 357.805L1225.57 358.194L1228.29 358.582ZM1228.68 355.863L1225.96 355.475L1223.24 355.086L1220.52 354.698L1217.8 354.31L1218.19 351.591L1220.91 351.979L1223.63 352.368L1226.35 352.756L1229.07 353.144L1228.68 355.863ZM1230.23 364.602L1227.51 364.214L1227.9 361.495L1230.62 361.883L1230.23 364.602ZM1231.01 358.97L1228.29 358.582L1228.68 355.863L1231.4 356.252L1231.01 358.97Z" fill="white"/>
<path d="M1225.57 329.064L1224.99 331.782L1224.41 334.501L1223.82 337.219L1221.11 336.637L1221.69 333.919L1222.27 331.2L1222.85 328.48L1225.57 329.064ZM1236.45 331.588L1235.86 334.306L1235.28 337.026L1234.7 339.745L1231.98 339.161L1231.4 341.881L1228.68 341.298L1229.26 338.579L1226.54 337.997L1227.13 335.277L1227.71 332.559L1228.29 329.84L1225.57 329.258L1226.15 326.538L1228.87 327.122L1231.59 327.704L1234.31 328.287L1237.03 328.869L1236.45 331.588ZM1233.15 333.724L1233.73 331.006L1231.01 330.422L1230.43 333.142L1229.84 335.861L1229.26 338.579L1231.98 339.161L1232.56 336.443L1233.15 333.724Z" fill="white"/>
<path d="M1237.81 314.304L1237.03 317.023L1234.31 316.246L1231.59 315.469L1228.87 314.693L1226.15 313.915L1226.93 311.197L1229.65 311.973L1232.37 312.751L1235.09 313.527L1237.81 314.304ZM1248.1 308.672L1245.38 307.896L1242.66 307.118L1241.88 309.838L1241.11 312.556L1240.33 315.275L1237.61 314.498L1238.39 311.78L1239.17 309.06L1239.94 306.341L1237.22 305.565L1234.51 304.788L1231.79 304.012L1229.07 303.234L1229.84 300.515L1232.56 301.292L1235.28 302.07L1238 302.846L1240.72 303.623L1243.44 304.399L1246.16 305.176L1248.88 305.954L1248.1 308.672ZM1245.77 316.635L1244.99 319.353L1242.27 318.577L1243.05 315.857L1245.77 316.635ZM1247.32 311.391L1248.1 308.672L1250.82 309.449L1250.04 312.168L1249.26 314.886L1248.49 317.606L1245.77 316.828L1246.55 314.11L1247.32 311.391Z" fill="white"/>
<path d="M1247.13 293.524L1244.41 292.553L1245.38 289.834L1248.1 290.805L1247.13 293.524Z" fill="white"/>
<path d="M1254.7 244.391L1253.54 246.915L1252.37 249.441L1251.21 251.965L1248.68 250.799L1249.85 248.275L1251.01 245.751L1252.18 243.226L1254.7 244.391ZM1264.8 249.052L1263.64 251.577L1262.47 254.101L1261.3 256.626L1258.78 255.461L1257.62 257.985L1255.09 256.82L1256.26 254.296L1253.73 253.13L1254.9 250.606L1256.06 248.081L1257.23 245.557L1254.7 244.391L1255.87 241.867L1258.39 243.031L1260.92 244.197L1263.44 245.362L1265.97 246.528L1264.8 249.052ZM1261.11 250.412L1262.28 247.886L1259.75 246.722L1258.59 249.246L1257.42 251.771L1256.26 254.296L1258.78 255.461L1259.95 252.936L1261.11 250.412Z" fill="white"/>
<path d="M1264.02 219.921L1265.38 217.397L1267.91 218.756L1266.55 221.281L1265.19 223.806L1263.83 226.331L1262.47 228.855L1259.95 227.495L1261.3 224.971L1262.66 222.447L1264.02 219.921ZM1264.99 230.02L1263.64 232.545L1261.11 231.186L1262.47 228.661L1264.99 230.02ZM1271.4 224L1270.04 226.524L1268.68 229.049L1267.33 231.574L1264.8 230.215L1266.16 227.69L1267.52 225.165L1268.88 222.64L1271.4 224ZM1272.57 227.69L1273.93 225.165L1276.45 226.524L1275.09 229.049L1273.73 231.574L1272.37 234.099L1271.01 236.623L1268.49 235.263L1269.85 232.739L1271.21 230.215L1272.57 227.69ZM1273.93 225.165L1271.4 223.806L1272.76 221.281L1275.29 222.64L1273.93 225.165Z" fill="white"/>
<path d="M1299.76 198.559L1297.43 197.006L1295.1 195.452L1292.77 193.898L1290.44 192.345L1288.1 190.791L1285.77 189.238L1283.44 187.684L1285 185.354L1286.55 183.023L1288.1 180.693L1289.66 178.362L1291.99 179.916L1293.54 177.586L1295.87 179.139L1298.2 180.693L1300.53 182.246L1298.98 184.577L1296.65 183.023L1294.32 181.47L1291.99 179.916L1290.44 182.246L1288.88 184.577L1287.33 186.907L1289.66 188.461L1291.99 190.014L1294.32 191.568L1295.87 189.238L1297.43 186.907L1298.98 184.577L1301.31 186.13L1299.76 188.461L1298.2 190.791L1296.65 193.122L1298.98 194.675L1301.31 196.229L1299.76 198.559Z" fill="white"/>
<path d="M1310.05 174.673L1307.91 172.925L1305.78 171.177L1303.64 169.429L1301.5 167.681L1299.37 165.934L1301.12 163.797L1303.25 165.545L1305.39 167.292L1307.14 165.157L1309.27 166.905L1307.53 169.041L1309.66 170.789L1311.8 172.536L1310.05 174.673ZM1306.17 157.195L1307.91 155.058L1310.05 156.806L1308.3 158.942L1306.55 161.079L1304.42 159.331L1306.17 157.195ZM1306.94 165.157L1304.81 163.408L1306.55 161.273L1308.69 163.021L1306.94 165.157Z" fill="white"/>
<path d="M1325.2 139.522L1323.26 141.658L1321.31 143.795L1319.37 145.93L1317.24 143.988L1319.18 141.853L1321.12 139.716L1323.06 137.58L1325.2 139.522ZM1325.78 151.174L1323.84 153.31L1321.7 151.368L1319.57 149.426L1317.43 147.484L1319.37 145.348L1321.51 147.29L1323.64 149.232L1325.78 151.174ZM1331.41 144.959L1329.28 143.017L1327.14 141.075L1325 139.133L1326.95 136.998L1329.08 138.94L1331.22 140.882L1333.35 142.824L1331.41 144.959ZM1329.47 147.096L1331.41 144.959L1333.55 146.901L1331.61 149.038L1329.66 151.174L1327.72 153.31L1325.59 151.368L1327.53 149.232L1329.47 147.096Z" fill="white"/>
<path d="M1345.2 130.783L1343.26 132.725L1341.32 130.783L1339.37 128.841L1337.43 126.899L1335.49 128.841L1333.55 126.899L1335.49 124.957L1333.55 123.015L1331.61 121.073L1333.55 119.131L1335.49 121.073L1337.43 123.015L1339.37 121.073L1341.32 119.131L1343.26 117.189L1345.2 115.247L1347.14 117.189L1345.2 119.131L1343.26 121.073L1341.32 123.015L1339.37 124.957L1341.32 126.899L1343.26 128.841L1345.2 130.783ZM1349.28 126.899L1351.22 124.957L1353.16 126.899L1351.22 128.841L1349.28 130.783L1347.34 132.725L1345.39 130.783L1347.34 128.841L1349.28 126.899ZM1351.22 124.957L1349.28 123.015L1351.22 121.073L1353.16 123.015L1351.22 124.957Z" fill="white"/>
<path d="M1363.84 113.304L1361.71 115.052L1359.96 112.916L1358.21 110.78L1356.46 108.644L1358.6 106.896L1360.35 109.032L1362.1 111.168L1363.84 113.304ZM1364.81 101.652L1362.68 103.4L1360.54 105.148L1358.41 106.896L1356.66 104.76L1358.79 103.012L1360.93 101.264L1363.07 99.5159L1364.81 101.652ZM1368.12 109.809L1370.25 108.061L1372 110.197L1369.86 111.945L1367.73 113.693L1365.59 115.441L1363.84 113.304L1365.98 111.557L1368.12 109.809ZM1370.25 107.867L1368.5 105.731L1366.76 103.594L1365.01 101.458L1367.15 99.7103L1368.89 101.847L1370.64 103.983L1372.39 106.119L1370.25 107.867Z" fill="white"/>
<path d="M1383.46 97.186L1381.32 98.9336L1379.57 96.6028L1377.83 94.4664L1376.08 92.331L1378.21 90.5824L1379.96 92.7188L1381.71 94.8552L1383.46 97.186ZM1385.21 85.5339L1383.07 87.2815L1380.93 89.0291L1378.8 90.7768L1377.05 88.6404L1379.19 86.8927L1381.32 85.1451L1383.46 83.3975L1385.21 85.5339ZM1387.92 93.8842L1390.06 92.1366L1391.81 94.273L1389.67 96.0206L1387.54 97.7682L1385.4 99.5159L1383.65 97.186L1385.79 95.4374L1387.92 93.8842ZM1386.76 87.6693L1385.01 85.5339L1387.34 83.7853L1389.09 85.9217L1386.76 87.6693ZM1390.26 92.1366L1388.51 90.0002L1390.64 88.2525L1392.39 90.3889L1390.26 92.1366Z" fill="white"/>
<path d="M1404.04 82.2322L1401.71 83.7854L1400.16 81.4555L1398.61 79.1247L1397.05 76.7949L1399.38 75.2407L1400.94 77.5715L1402.49 79.9014L1404.04 82.2322ZM1406.57 70.7744L1404.24 72.3277L1401.91 73.8818L1399.58 75.4351L1398.02 73.1043L1400.35 71.551L1402.68 69.9978L1405.01 68.4436L1406.57 70.7744ZM1408.7 79.3191L1411.04 77.7659L1412.59 80.0957L1410.26 81.6499L1407.93 83.2032L1405.6 84.7564L1404.04 82.4266L1406.37 80.8724L1408.7 79.3191ZM1411.04 77.7659L1409.48 75.4351L1407.93 73.1043L1406.37 70.7744L1408.7 69.2202L1410.26 71.551L1411.81 73.8818L1413.37 76.2117L1411.04 77.7659Z" fill="white"/>
<path d="M1424.63 72.522L1423.27 70.1912L1421.91 67.8613L1420.55 65.5305L1419.19 63.2006L1417.83 60.8698L1416.47 58.539L1415.11 56.2092L1417.44 54.8494L1418.8 57.1802L1420.16 59.51L1421.52 61.8408L1422.88 64.1716L1424.24 66.5015L1425.6 68.8323L1426.96 71.1622L1424.63 72.522Z" fill="white"/>
<path d="M1455.9 46.3046L1453.37 47.47L1452.21 44.9448L1454.73 43.7803L1455.9 46.3046ZM1461.33 37.7599L1463.86 36.5945L1465.02 39.1187L1462.5 40.2841L1459.97 41.4495L1457.45 42.6149L1454.92 43.7803L1453.76 41.2551L1456.28 40.0897L1458.81 38.9253L1461.33 37.7599ZM1463.28 49.0232L1465.8 47.8578L1466.97 50.383L1464.44 51.5484L1461.92 52.7129L1459.39 53.8783L1456.87 55.0437L1455.7 52.5195L1458.23 51.354L1460.75 50.1886L1463.28 49.0232ZM1464.83 45.3336L1462.3 46.499L1459.78 47.6644L1457.26 48.8289L1456.09 46.3046L1458.61 45.1392L1461.14 43.9738L1463.66 42.8093L1464.83 45.3336ZM1465.99 47.8578L1464.83 45.3336L1467.35 44.1682L1468.52 46.6934L1465.99 47.8578Z" fill="white"/>
<path d="M1484.25 40.0898L1481.72 41.0608L1480.75 38.5365L1479.78 36.0123L1478.81 33.4871L1476.29 34.4581L1475.32 31.9339L1477.84 30.9628L1476.87 28.4376L1475.9 25.9134L1478.42 24.9424L1479.39 27.4666L1480.37 29.9918L1482.89 29.0208L1485.41 28.0498L1487.94 27.0788L1490.46 26.1078L1491.43 28.632L1488.91 29.603L1486.39 30.5741L1483.86 31.5451L1481.34 32.5161L1482.31 35.0413L1483.28 37.5655L1484.25 40.0898ZM1489.49 38.1478L1492.02 37.1768L1492.99 39.7019L1490.46 40.673L1487.94 41.644L1485.41 42.615L1484.44 40.0898L1486.97 39.1188L1489.49 38.1478ZM1492.02 37.1768L1491.05 34.6525L1493.57 33.6815L1494.54 36.2057L1492.02 37.1768Z" fill="white"/>
<path d="M1517.07 31.7396L1514.35 32.5162L1511.63 33.2929L1508.91 34.0704L1508.14 31.3508L1505.42 32.1284L1504.64 29.4088L1507.36 28.6322L1506.58 25.9135L1509.3 25.1369L1512.02 24.3603L1514.74 23.5827L1513.96 20.8641L1516.68 20.0875L1517.46 22.8061L1518.23 25.5248L1519.01 28.2444L1519.79 30.963L1517.07 31.7396ZM1513.77 21.0585L1511.05 21.8351L1508.33 22.6117L1505.61 23.3893L1504.83 20.6697L1507.55 19.8931L1510.27 19.1165L1512.99 18.3398L1513.77 21.0585ZM1513.57 29.7976L1516.29 29.021L1515.52 26.3023L1512.8 27.0789L1510.08 27.8556L1507.36 28.6322L1508.14 31.3508L1510.85 30.5742L1513.57 29.7976Z" fill="white"/>
<path d="M1535.32 23.7772L1532.61 24.3603L1532.02 21.6407L1531.44 18.9221L1530.86 16.2035L1528.14 16.7857L1527.56 14.067L1530.28 13.4848L1529.69 10.7662L1529.11 8.04658L1531.83 7.46436L1532.41 10.183L1532.99 12.9016L1535.71 12.3194L1538.43 11.7372L1541.15 11.154L1543.87 10.5718L1544.45 13.2904L1541.73 13.8727L1539.01 14.4558L1536.3 15.0381L1533.58 15.6212L1534.16 18.3399L1534.74 21.0585L1535.32 23.7772ZM1540.76 22.4183L1543.48 21.8351L1544.06 24.5538L1541.34 25.137L1538.63 25.7192L1535.91 26.3024L1535.32 23.5828L1538.04 23.0005L1540.76 22.4183ZM1543.48 21.8351L1542.9 19.1165L1545.62 18.5343L1546.2 21.2529L1543.48 21.8351Z" fill="white"/>
<path d="M1560.18 18.5342L1557.46 18.922L1557.08 16.2034L1556.69 13.4848L1556.3 10.7661L1559.02 10.3773L1559.41 13.096L1562.12 12.7081L1564.84 12.3193L1567.56 11.9306L1567.17 9.21192L1569.89 8.82408L1570.28 11.5427L1570.67 14.2614L1567.95 14.6502L1565.23 15.038L1562.51 15.4268L1559.79 15.8146L1560.18 18.5342ZM1566.98 8.82408L1564.26 9.21192L1561.54 9.6007L1558.82 9.98854L1558.43 7.2699L1561.15 6.88206L1563.87 6.49328L1566.59 6.10449L1566.98 8.82408ZM1565.62 17.5632L1568.34 17.1744L1568.73 19.893L1566.01 20.2818L1563.29 20.6697L1560.57 21.0585L1560.18 18.3398L1562.9 17.951L1565.62 17.5632Z" fill="white"/>
<path d="M1584.65 9.01754L1581.93 9.40632L1581.54 6.68768L1584.26 6.2989L1584.65 9.01754ZM1590.87 14.067L1593.59 13.6792L1593.97 16.3978L1591.25 16.7856L1588.54 17.1744L1585.82 17.5632L1583.1 17.951L1582.71 15.2324L1585.43 14.8436L1588.15 14.4558L1590.87 14.067ZM1592.42 2.60924L1595.14 2.22046L1595.53 4.94005L1592.81 5.32789L1590.09 5.71667L1587.37 6.10451L1584.65 6.49329L1584.26 3.77465L1586.98 3.38586L1589.7 2.99803L1592.42 2.60924ZM1593.39 10.9596L1590.67 11.3483L1587.95 11.7371L1585.23 12.125L1584.85 9.40632L1587.56 9.01754L1590.28 8.6297L1593 8.24092L1593.39 10.9596ZM1593.59 13.6792L1593.2 10.9596L1595.92 10.5717L1596.3 13.2904L1593.59 13.6792Z" fill="white"/>
<path d="M1608.15 15.4267L1607.96 12.7081L1610.68 12.5137L1610.87 15.2323L1608.15 15.4267Z" fill="white"/>
<path d="M1644.85 14.4557L1645.05 11.7371L1645.24 9.0175L1645.44 6.29886L1645.63 3.58022L1645.83 0.861572L1648.54 1.05596L1651.26 1.24941L1653.98 1.4438L1656.7 1.63819L1656.51 4.35683L1653.79 4.16244L1651.07 3.969L1648.35 3.77461L1648.16 6.49325L1647.96 9.21189L1647.77 11.9305L1647.57 14.6501L1644.85 14.4557ZM1655.92 15.038L1656.12 12.3193L1656.31 9.60068L1656.51 6.88203L1656.7 4.16244L1659.42 4.35683L1659.23 7.07548L1659.03 9.79507L1658.84 12.5137L1658.64 15.2324L1655.92 15.038Z" fill="white"/>
<path d="M1681.17 17.1744L1678.45 16.7856L1675.73 16.3978L1673.01 16.009L1673.4 13.2904L1670.68 12.9016L1671.07 10.1829L1673.79 10.5717L1674.18 7.85309L1676.9 8.24092L1679.62 8.6297L1682.34 9.01754L1682.72 6.2989L1685.44 6.68768L1685.05 9.40632L1684.67 12.125L1684.28 14.8436L1683.89 17.5632L1681.17 17.1744ZM1678.65 14.067L1681.36 14.4558L1681.75 11.7371L1679.03 11.3483L1676.32 10.9596L1673.6 10.5717L1673.21 13.2904L1675.93 13.6792L1678.65 14.067ZM1682.34 6.10451L1679.62 5.71667L1676.9 5.32789L1674.18 4.94005L1674.57 2.22046L1677.29 2.60924L1680.01 2.99803L1682.72 3.38586L1682.34 6.10451Z" fill="white"/>
<path d="M1701.17 16.9799L1698.45 16.5921L1698.84 13.8725L1699.23 11.1538L1699.62 8.4352L1696.9 8.04641L1697.29 5.32777L1700.01 5.71655L1700.4 2.99791L1700.78 0.27832L1703.5 0.667104L1703.12 3.38575L1702.73 6.10439L1705.45 6.49317L1708.16 6.88196L1710.88 7.26979L1713.6 7.65858L1713.21 10.3772L1710.49 9.98844L1707.78 9.6006L1705.06 9.21182L1702.34 8.82398L1701.95 11.5426L1701.56 14.2613L1701.17 16.9799ZM1706.61 17.9509L1709.33 18.3397L1708.94 21.0583L1706.22 20.6696L1703.5 20.2817L1700.78 19.8929L1701.17 17.1743L1703.89 17.5631L1706.61 17.9509ZM1709.33 18.5341L1709.72 15.8145L1712.44 16.2033L1712.05 18.9219L1709.33 18.5341Z" fill="white"/>
<path d="M1726.03 21.8349L1723.31 21.2527L1723.89 18.5341L1724.48 15.8145L1725.06 13.0958L1725.64 10.3772L1728.36 10.9594L1727.78 13.679L1727.2 16.3977L1726.61 19.1163L1726.03 21.8349ZM1733.6 26.69L1730.89 26.1078L1728.17 25.5246L1725.45 24.9424L1726.03 22.2237L1728.75 22.806L1731.47 23.3891L1734.19 23.9714L1734.77 21.2527L1735.35 18.5341L1735.94 15.8145L1736.52 13.0958L1739.24 13.679L1738.65 16.3977L1738.07 19.1163L1737.49 21.8349L1736.91 24.5536L1736.32 27.2732L1733.6 26.69Z" fill="white"/>
<path d="M1747.2 30.1862L1747.98 27.4666L1748.75 24.748L1749.53 22.0293L1750.31 19.3107L1751.08 16.592L1753.8 17.3687L1753.03 20.0873L1752.25 22.8059L1754.97 23.5826L1754.19 26.3022L1751.47 25.5246L1750.69 28.2442L1749.92 30.9628L1747.2 30.1862ZM1754.97 23.777L1755.74 21.0583L1758.46 21.8349L1757.69 24.5536L1754.97 23.777ZM1761.96 20.0873L1764.68 20.8639L1763.9 23.5826L1761.18 22.8059L1758.46 22.0293L1759.24 19.3107L1761.96 20.0873Z" fill="white"/>
<path d="M1774.97 36.2059L1772.45 35.2349L1773.42 32.7107L1774.39 30.1864L1775.36 27.6612L1777.88 28.6322L1776.91 31.1574L1779.44 32.1284L1781.96 33.0994L1784.49 34.0705L1785.46 31.5453L1787.98 32.5163L1787.01 35.0415L1786.04 37.5657L1783.52 36.5947L1780.99 35.6237L1778.47 34.6527L1775.94 33.6817L1774.97 36.2059ZM1780.02 38.1479L1782.54 39.119L1781.57 41.6442L1779.05 40.6731L1776.52 39.7021L1774 38.7311L1774.97 36.2059L1777.49 37.1769L1780.02 38.1479ZM1785.65 31.3509L1783.13 30.3798L1780.6 29.4088L1778.08 28.4378L1779.05 25.9136L1781.57 26.8846L1784.1 27.8556L1786.62 28.8266L1785.65 31.3509Z" fill="white"/>
<path d="M1803.71 47.858L1806.24 49.0234L1805.07 51.5486L1802.55 50.3832L1800.02 49.2178L1797.5 48.0524L1794.97 46.887L1796.14 44.3628L1798.66 45.5282L1801.19 46.6936L1803.71 47.858ZM1800.8 40.4787L1798.27 39.3133L1799.44 36.7891L1801.96 37.9545L1800.8 40.4787ZM1807.4 46.4992L1804.88 45.3338L1802.35 44.1684L1799.83 43.003L1800.99 40.4787L1803.52 41.6441L1806.04 42.8095L1808.57 43.974L1807.4 46.4992ZM1810.7 38.7311L1813.23 39.8965L1812.06 42.4207L1809.54 41.2553L1807.01 40.0899L1804.49 38.9255L1801.96 37.7601L1803.13 35.2349L1805.65 36.4003L1808.18 37.5657L1810.7 38.7311ZM1806.24 49.0234L1807.4 46.4992L1809.93 47.6646L1808.76 50.1888L1806.24 49.0234Z" fill="white"/>
<path d="M1841.58 67.2783L1839.25 65.9194L1840.61 63.5886L1841.97 61.2588L1843.33 58.928L1844.69 56.5972L1847.02 57.957L1845.66 60.2878L1844.3 62.6176L1842.94 64.9484L1841.58 67.2783ZM1840.03 69.6091L1841.39 67.2783L1843.72 68.6381L1842.36 70.9689L1840.03 69.6091ZM1846.24 70.1913L1843.91 68.8325L1845.27 66.5017L1846.63 64.1718L1847.99 61.841L1849.35 59.5102L1851.68 60.87L1850.32 63.2008L1848.96 65.5307L1847.6 67.8615L1846.24 70.1913ZM1844.88 72.5221L1846.24 70.1913L1848.57 71.5511L1847.21 73.8819L1844.88 72.5221ZM1848.77 71.5511L1850.13 69.2203L1851.49 66.8905L1852.85 64.5597L1854.2 62.2298L1856.53 63.5886L1855.18 65.9194L1853.82 68.2493L1852.46 70.5801L1851.1 72.9109L1848.77 71.5511Z" fill="white"/>
<path d="M1868.38 87.8638L1866.05 86.3106L1863.72 84.7564L1861.39 83.2032L1862.94 80.8724L1860.61 79.3191L1862.17 76.9883L1864.5 78.5425L1866.05 76.2117L1868.38 77.7659L1870.71 79.3191L1873.04 80.8724L1874.6 78.5425L1876.93 80.0957L1875.37 82.4265L1873.82 84.7564L1872.27 87.0872L1870.71 89.418L1868.38 87.8638ZM1867.6 83.9798L1869.94 85.534L1871.49 83.2032L1869.16 81.6499L1866.83 80.0957L1864.5 78.5425L1862.94 80.8724L1865.27 82.4265L1867.6 83.9798ZM1874.79 78.5425L1872.46 76.9883L1870.13 75.4351L1867.8 73.8818L1869.35 71.551L1871.68 73.1043L1874.01 74.6585L1876.34 76.2117L1874.79 78.5425Z" fill="white"/>
<path d="M1878.67 102.041L1876.54 100.293L1878.29 98.1571L1880.42 99.9048L1878.67 102.041ZM1883.14 105.536L1885.28 107.284L1883.53 109.42L1881.39 107.673L1879.26 105.925L1877.12 104.177L1878.87 102.041L1881 103.789L1883.14 105.536ZM1883.72 95.6319L1881.59 93.8843L1883.34 91.7479L1885.08 89.6115L1886.83 87.476L1888.58 85.3396L1890.71 87.0872L1888.97 89.2236L1887.22 91.3601L1885.47 93.4955L1883.72 95.6319ZM1885.28 107.284L1887.02 105.148L1888.77 103.012L1886.64 101.264L1884.5 99.516L1882.36 97.7684L1884.11 95.6319L1886.25 97.3796L1888.38 99.1282L1890.52 100.876L1892.27 98.7394L1894.02 96.603L1895.76 94.4665L1897.51 92.3311L1899.65 94.0787L1897.9 96.2151L1896.15 98.3506L1894.4 100.487L1892.66 102.623L1890.91 104.76L1889.16 106.896L1887.41 109.032L1885.28 107.284Z" fill="white"/>
<path d="M1899.65 111.945L1901.4 109.809L1903.53 111.557L1901.78 113.693L1899.65 111.945Z" fill="white"/>
</svg>
