<svg width="3465" height="263" viewBox="0 0 3465 263" fill="none" xmlns="http://www.w3.org/2000/svg">
<path d="M29.6737 45.1186V37.9346V30.7487V23.5629H22.4883V30.7487H15.3027V37.9346H8.11727V45.1186H0.931641V37.9346V30.7487V23.5629V16.377V9.19112H8.11727V16.377V23.5629V30.7487H15.3027V23.5629H22.4883V16.377H29.6737V9.19112H36.8591V16.377V23.5629V30.7487V37.9346V45.1186H29.6737ZM29.6737 9.57991H22.4883H15.3027H8.11727V2.39404H15.3027H22.4883H29.6737V9.57991ZM22.4883 45.1186H29.6737V52.3044H22.4883H15.3027H8.11727V45.1186H15.3027H22.4883Z" fill="white"/>
<path d="M94.9256 52.3046V45.1187V37.9348V30.7489H87.7402H80.5546H73.3692H66.1838V23.563V16.3772V9.19129V2.00732H73.3692V9.19129V16.3772V23.563H80.5546H87.7402H94.9256V16.3772V9.19129V2.00732H102.111V9.19129V16.3772V23.563V30.7489V37.9348V45.1187V52.3046H94.9256Z" fill="white"/>
<path d="M407.009 258.742H259.415V148.63H407.009V173.488H317.093V191.16H397.687L393.609 214.659H317.093V231.166H407.009V258.742Z" fill="white"/>
<path d="M588.782 258.742H521.782L455.948 184.751V258.742H422.545V148.63H489.739L555.379 222.621V148.63H588.782V258.742Z" fill="white"/>
<path d="M724.335 258.742H607.425V148.63H724.335C734.434 148.63 743.367 151.155 751.135 156.01C758.903 161.059 765.118 167.662 769.779 175.819C774.245 184.169 776.576 193.297 776.576 203.589C776.576 213.688 774.439 223.009 769.973 231.36C765.506 239.711 759.292 246.314 751.329 251.169C743.561 256.218 734.434 258.742 724.335 258.742ZM690.738 232.524C698.895 232.524 705.692 229.806 710.935 224.174C716.179 218.542 718.898 211.746 718.898 203.589C718.898 195.433 716.179 188.635 710.935 183.003C705.692 177.565 698.895 174.652 690.738 174.652H665.298V232.331H690.738V232.524Z" fill="white"/>
<path d="M938.346 258.742H790.752V148.63H848.43V232.524H938.346V258.742Z" fill="white"/>
<path d="M1097.2 258.742H949.61V148.63H1097.2V173.488H1007.29V191.16H1087.88L1083.8 214.659H1007.29V231.166H1097.2V258.742Z" fill="white"/>
<path d="M1191.39 262.821C1181.29 262.821 1171.19 262.431 1161.29 261.654C1151.39 260.878 1142.65 259.131 1134.68 256.606C1126.72 254.081 1120.51 250.196 1115.65 245.147C1110.99 240.098 1108.66 233.302 1108.66 224.562H1166.34C1166.34 228.641 1167.31 231.554 1169.45 233.302C1171.58 235.049 1174.3 236.41 1177.99 236.992C1181.68 237.575 1185.95 237.963 1190.81 237.963H1196.64C1202.07 237.963 1206.35 237.574 1210.04 236.797C1214.11 236.02 1216.06 233.495 1216.06 229.611C1216.06 226.504 1212.95 224.368 1206.54 222.814C1200.52 221.649 1193.14 220.29 1184.01 219.125C1173.33 217.766 1162.46 215.823 1151.19 213.493C1140.12 211.162 1130.61 207.472 1122.64 202.423C1114.29 197.179 1110.02 189.607 1110.02 179.703C1110.02 171.934 1112.16 165.72 1116.62 160.865C1120.9 156.009 1127.11 152.513 1134.88 149.988C1142.65 147.658 1151.58 146.104 1161.29 145.522C1171.19 144.939 1181.1 144.746 1191.39 144.746C1201.68 144.746 1211.59 145.134 1221.3 145.911C1231.01 146.687 1239.75 148.434 1247.32 150.959C1255.09 153.484 1261.11 157.368 1265.77 162.418C1270.43 167.467 1272.76 174.263 1272.76 183.002H1216.25C1216.25 178.924 1215.28 176.011 1213.34 174.263C1211.39 172.516 1208.48 171.157 1204.6 170.575C1200.91 169.992 1194.69 169.604 1186.15 169.604C1181.1 169.604 1176.63 169.991 1173.33 170.768C1169.84 171.545 1168.09 173.876 1168.09 177.76V178.925C1168.48 181.45 1171.78 183.391 1177.6 184.944C1183.43 186.498 1191.2 187.859 1200.33 189.024C1211.01 190.577 1221.88 192.714 1232.95 195.239C1244.02 197.763 1253.54 201.647 1261.5 206.502C1269.85 211.94 1273.93 219.125 1273.93 228.447C1273.93 236.797 1271.6 243.205 1267.13 248.06C1262.66 252.915 1256.45 256.412 1248.49 258.548C1240.53 260.684 1231.59 262.044 1221.69 262.432C1211.78 262.626 1201.68 262.821 1191.39 262.821Z" fill="white"/>
<path d="M1367.92 262.821C1357.82 262.821 1347.72 262.431 1337.82 261.654C1327.92 260.878 1319.18 259.131 1311.21 256.606C1303.25 254.081 1297.04 250.196 1292.18 245.147C1287.52 240.098 1285.19 233.302 1285.19 224.562H1342.87C1342.87 228.641 1343.84 231.554 1345.98 233.302C1348.11 235.049 1350.83 236.41 1354.52 236.992C1358.21 237.575 1362.48 237.963 1367.34 237.963H1373.17C1378.6 237.963 1382.88 237.574 1386.57 236.797C1390.64 236.02 1392.59 233.495 1392.59 229.611C1392.59 226.504 1389.48 224.368 1383.07 222.814C1377.05 221.649 1369.67 220.29 1360.54 219.125C1349.86 217.766 1338.99 215.823 1327.72 213.493C1316.65 211.162 1307.14 207.472 1299.17 202.423C1290.82 197.179 1286.55 189.607 1286.55 179.703C1286.55 171.934 1288.69 165.72 1293.15 160.865C1297.43 156.009 1303.64 152.513 1311.41 149.988C1319.18 147.658 1328.11 146.104 1337.82 145.522C1347.72 144.939 1357.63 144.746 1367.92 144.746C1378.21 144.746 1388.12 145.134 1397.83 145.911C1407.54 146.687 1416.28 148.434 1423.85 150.959C1431.62 153.484 1437.64 157.368 1442.3 162.418C1446.96 167.467 1449.29 174.263 1449.29 183.002H1392.78C1392.78 178.924 1391.81 176.011 1389.87 174.263C1387.92 172.321 1385.01 171.157 1381.13 170.575C1377.44 169.992 1371.22 169.604 1362.68 169.604C1357.63 169.604 1353.16 169.991 1349.86 170.768C1346.37 171.545 1344.62 173.876 1344.62 177.76V178.925C1345.01 181.45 1348.31 183.391 1354.13 184.944C1360.15 186.498 1367.73 187.859 1376.85 189.024C1387.54 190.577 1398.41 192.714 1409.48 195.239C1420.55 197.763 1430.07 201.647 1438.03 206.502C1446.38 211.94 1450.46 219.125 1450.46 228.447C1450.46 236.797 1448.13 243.205 1443.66 248.06C1439.19 252.915 1432.98 256.412 1425.02 258.548C1417.05 260.684 1408.12 262.044 1398.22 262.432C1388.31 262.626 1378.21 262.821 1367.92 262.821Z" fill="white"/>
<path d="M1616.31 258.742H1558.63V148.63H1689.52C1700.2 148.63 1708.75 152.319 1715.16 159.505C1721.76 166.69 1725.06 175.623 1725.06 186.304C1725.06 196.986 1721.76 205.724 1715.16 213.104C1708.55 220.29 1700.01 223.98 1689.52 223.98H1616.31V258.742ZM1655.92 197.763C1662.91 197.763 1666.8 193.878 1667.19 186.304C1667.19 179.313 1663.5 175.43 1655.92 175.041H1616.31V197.763H1655.92Z" fill="white"/>
<path d="M1820.41 262.821C1794.39 262.821 1774 258.547 1758.85 250.002C1741.57 240.292 1733.02 224.757 1733.02 203.589C1733.02 182.615 1741.57 167.079 1758.85 157.369C1773.8 148.824 1794.39 144.551 1820.41 144.551C1846.24 144.551 1866.83 148.824 1881.78 157.369C1899.07 167.079 1907.8 182.615 1907.8 203.589C1907.8 224.757 1899.07 240.292 1881.78 250.002C1866.83 258.547 1846.24 262.821 1820.41 262.821ZM1820.41 235.244C1830.51 235.244 1838.09 232.719 1842.75 227.476C1847.6 222.426 1849.93 214.464 1849.93 203.589C1849.93 192.714 1847.6 184.752 1842.75 179.703C1837.89 174.653 1830.51 171.934 1820.41 171.934C1810.31 171.934 1802.74 174.459 1798.08 179.703C1793.23 184.752 1790.89 192.714 1790.89 203.589C1790.89 214.464 1793.23 222.426 1798.08 227.476C1802.74 232.719 1810.31 235.244 1820.41 235.244Z" fill="white"/>
<path d="M2000.24 262.821C1990.15 262.821 1980.05 262.431 1970.14 261.654C1960.24 260.878 1951.5 259.131 1943.54 256.606C1935.58 254.081 1929.36 250.196 1924.51 245.147C1919.84 240.098 1917.51 233.302 1917.51 224.562H1975.19C1975.19 228.641 1976.16 231.554 1978.3 233.302C1980.44 235.049 1983.15 236.41 1986.84 236.992C1990.53 237.575 1994.81 237.963 1999.66 237.963H2005.49C2010.93 237.963 2015.2 237.574 2018.89 236.797C2022.97 236.02 2024.91 233.495 2024.91 229.611C2024.91 226.504 2021.8 224.368 2015.39 222.814C2009.37 221.649 2001.99 220.29 1992.86 219.125C1982.18 217.766 1971.31 215.823 1960.04 213.493C1948.98 211.162 1939.46 207.472 1931.5 202.423C1923.15 197.179 1918.87 189.607 1918.87 179.703C1918.87 171.934 1921.01 165.72 1925.48 160.865C1929.75 156.009 1935.96 152.513 1943.73 149.988C1951.5 147.658 1960.43 146.104 1970.14 145.522C1980.05 144.939 1989.95 144.746 2000.24 144.746C2010.54 144.746 2020.44 145.134 2030.15 145.911C2039.86 146.687 2048.6 148.434 2056.17 150.959C2063.94 153.484 2069.96 157.368 2074.62 162.418C2079.28 167.467 2081.62 174.263 2081.62 183.002H2025.1C2025.1 178.924 2024.13 176.011 2022.19 174.263C2020.25 172.321 2017.33 171.157 2013.45 170.575C2009.76 169.992 2003.55 169.604 1995 169.604C1989.95 169.604 1985.48 169.991 1982.18 170.768C1978.69 171.545 1976.94 173.876 1976.94 177.76V178.925C1977.33 181.45 1980.63 183.391 1986.46 184.944C1992.48 186.498 2000.05 187.859 2009.18 189.024C2019.86 190.577 2030.73 192.714 2041.8 195.239C2052.87 197.763 2062.39 201.647 2070.35 206.502C2078.7 211.94 2082.78 219.125 2082.78 228.447C2082.78 236.797 2080.45 243.205 2075.98 248.06C2071.52 252.915 2065.3 256.412 2057.34 258.548C2049.38 260.684 2040.44 262.044 2030.54 262.432C2020.64 262.626 2010.54 262.821 2000.24 262.821Z" fill="white"/>
<path d="M2176.77 262.821C2166.68 262.821 2156.58 262.431 2146.67 261.654C2136.77 260.878 2128.03 259.131 2120.07 256.606C2112.1 254.081 2105.89 250.196 2101.04 245.147C2096.37 240.098 2094.04 233.302 2094.04 224.562H2151.72C2151.72 228.641 2152.69 231.554 2154.83 233.302C2156.97 235.049 2159.68 236.41 2163.37 236.992C2167.06 237.575 2171.34 237.963 2176.19 237.963H2182.02C2187.46 237.963 2191.73 237.574 2195.42 236.797C2199.5 236.02 2201.44 233.495 2201.44 229.611C2201.44 226.504 2198.33 224.368 2191.92 222.814C2185.9 221.649 2178.52 220.29 2169.39 219.125C2158.71 217.766 2147.84 215.823 2136.57 213.493C2125.5 211.162 2115.99 207.472 2108.03 202.423C2099.68 197.179 2095.4 189.607 2095.4 179.703C2095.4 171.934 2097.54 165.72 2102.01 160.865C2106.28 156.009 2112.49 152.513 2120.26 149.988C2128.03 147.658 2136.96 146.104 2146.67 145.522C2156.58 144.939 2166.48 144.746 2176.77 144.746C2187.07 144.746 2196.97 145.134 2206.68 145.911C2216.39 146.687 2225.13 148.434 2232.7 150.959C2240.47 153.484 2246.49 157.368 2251.15 162.418C2255.81 167.467 2258.15 174.263 2258.15 183.002H2201.83C2201.83 178.924 2200.86 176.011 2198.91 174.263C2196.97 172.321 2194.06 171.157 2190.17 170.575C2186.48 169.992 2180.27 169.604 2171.73 169.604C2166.68 169.604 2162.21 169.991 2158.91 170.768C2155.41 171.545 2153.66 173.876 2153.66 177.76V178.925C2154.05 181.45 2157.35 183.391 2163.18 184.944C2169.2 186.498 2176.77 187.859 2185.9 189.024C2196.58 190.577 2207.46 192.714 2218.53 195.239C2229.6 197.763 2239.11 201.647 2247.08 206.502C2255.43 211.94 2259.5 219.125 2259.5 228.447C2259.5 236.797 2257.17 243.205 2252.71 248.06C2248.24 252.915 2242.03 256.412 2234.06 258.548C2226.1 260.684 2217.17 262.044 2207.26 262.432C2197.17 262.626 2187.07 262.821 2176.77 262.821Z" fill="white"/>
<path d="M2332.33 258.742H2274.65V148.63H2332.33V258.742Z" fill="white"/>
<path d="M2489.63 258.742H2351.17V148.63H2485.75C2493.32 148.63 2499.73 151.348 2504.78 156.785C2509.83 162.223 2512.16 168.827 2512.16 176.401C2512.16 182.033 2510.61 186.888 2507.5 191.355C2504.39 195.822 2500.32 199.121 2495.46 201.452C2501.67 203.394 2506.92 206.89 2511.19 211.94C2515.46 216.989 2517.41 222.815 2517.41 229.418C2517.41 237.574 2514.69 244.371 2509.64 250.002C2504.39 255.829 2497.79 258.742 2489.63 258.742ZM2444.39 191.548C2446.91 191.548 2449.43 190.577 2451.38 188.829C2453.51 187.081 2454.48 184.752 2454.48 182.227C2454.48 179.702 2453.71 177.371 2451.96 175.623C2450.41 173.876 2448.27 172.906 2445.74 172.906H2408.85V191.548H2444.39ZM2449.63 234.466C2452.74 234.466 2455.07 233.496 2457.01 231.36C2458.76 229.224 2459.73 226.698 2459.73 223.785C2459.73 220.872 2458.56 218.349 2456.23 216.212C2453.9 214.076 2451.38 213.104 2448.46 213.104H2408.85V234.466H2449.63Z" fill="white"/>
<path d="M2589.84 258.742H2532.17V148.63H2589.84V258.742Z" fill="white"/>
<path d="M2756.27 258.742H2608.68V148.63H2666.36V232.524H2756.27V258.742Z" fill="white"/>
<path d="M2825.22 258.742H2767.54V148.63H2825.22V258.742Z" fill="white"/>
<path d="M2945.62 258.742H2887.94V174.848H2836.29V148.63H2997.28V174.848H2945.62V258.742Z" fill="white"/>
<path d="M3066.03 258.742H3008.35V148.63H3066.03V258.742Z" fill="white"/>
<path d="M3232.65 258.742H3085.06V148.63H3232.65V173.488H3142.74V191.16H3223.33L3219.25 214.659H3142.74V231.166H3232.65V258.742Z" fill="white"/>
<path d="M3326.84 262.821C3316.74 262.821 3306.64 262.431 3296.74 261.654C3286.84 260.878 3278.1 259.131 3270.13 256.606C3262.17 254.081 3255.96 250.196 3251.1 245.147C3246.44 240.098 3244.11 233.302 3244.11 224.562H3301.79C3301.79 228.641 3302.76 231.554 3304.9 233.302C3307.03 235.049 3309.75 236.41 3313.44 236.992C3317.13 237.575 3321.4 237.963 3326.26 237.963H3332.08C3337.52 237.963 3341.79 237.574 3345.48 236.797C3349.56 236.02 3351.5 233.495 3351.5 229.611C3351.5 226.504 3348.4 224.368 3341.99 222.814C3335.97 221.649 3328.59 220.29 3319.46 219.125C3308.78 217.766 3297.9 215.823 3286.64 213.493C3275.57 211.162 3266.06 207.472 3258.09 202.423C3249.74 197.179 3245.47 189.607 3245.47 179.703C3245.47 171.934 3247.61 165.72 3252.07 160.865C3256.35 156.009 3262.56 152.513 3270.33 149.988C3278.1 147.658 3287.03 146.104 3296.74 145.522C3306.64 144.939 3316.55 144.746 3326.84 144.746C3337.13 144.746 3347.04 145.134 3356.75 145.911C3366.46 146.687 3375.2 148.434 3382.77 150.959C3390.54 153.484 3396.56 157.368 3401.22 162.418C3405.88 167.467 3408.21 174.263 3408.21 183.002H3351.7C3351.7 178.924 3350.73 176.011 3348.79 174.263C3346.84 172.321 3343.93 171.157 3340.05 170.575C3336.36 169.992 3330.14 169.604 3321.6 169.604C3316.55 169.604 3312.08 169.991 3308.78 170.768C3305.28 171.545 3303.54 173.876 3303.54 177.76V178.925C3303.92 181.45 3307.23 183.391 3313.05 184.944C3319.07 186.498 3326.65 187.859 3335.77 189.024C3346.45 190.577 3357.33 192.714 3368.4 195.239C3379.47 197.763 3388.99 201.647 3396.95 206.502C3405.3 211.94 3409.38 219.125 3409.38 228.447C3409.38 236.797 3407.05 243.205 3402.58 248.06C3398.11 252.915 3391.9 256.412 3383.94 258.548C3375.97 260.684 3367.04 262.044 3357.14 262.432C3347.23 262.626 3337.13 262.821 3326.84 262.821Z" fill="white"/>
<path d="M3464.53 258.741H3420.25V226.504H3464.53V258.741Z" fill="white"/>
<path d="M332.823 51.916H307.577L295.537 36.3798H284.661V51.916H258.832V2.7832H317.287C321.948 2.7832 325.832 4.33682 328.745 7.63826C331.658 10.9397 333.212 14.8241 333.212 19.6792C333.212 23.7574 332.047 27.2538 329.522 30.1669C326.997 33.0799 324.084 35.0219 320.2 35.9929L332.823 51.916ZM301.945 24.7277C303.499 24.7277 304.858 24.3408 306.024 23.3698C307.189 22.3988 307.771 21.2328 307.771 19.6792C307.771 16.5719 306.023 14.8249 302.722 14.6307H285.05V24.7277H301.945Z" fill="white"/>
<path d="M405.843 51.916H339.814V2.7832H405.843V13.8531H365.643V21.8147H401.571L399.823 32.3023H365.643V39.6816H405.843V51.916Z" fill="white"/>
<path d="M491.681 51.916H465.269L461.191 44.3433H429.536L425.458 51.916H408.562L435.751 2.7832H464.493L491.681 51.916ZM454.783 33.0799L445.267 15.7951L435.751 33.0799H454.783Z" fill="white"/>
<path d="M561.788 51.916H495.759V2.7832H521.588V40.2639H561.788V51.916Z" fill="white"/>
<path d="M682.193 51.916H656.947L644.907 36.3798H634.031V51.916H608.202V2.7832H666.657C671.318 2.7832 675.202 4.33682 678.115 7.63826C681.028 10.9397 682.582 14.8241 682.582 19.6792C682.582 23.7574 681.417 27.2538 678.892 30.1669C676.367 33.0799 673.454 35.0219 669.57 35.9929L682.193 51.916ZM651.315 24.7277C652.869 24.7277 654.228 24.3408 655.393 23.3698C656.559 22.3988 657.141 21.2328 657.141 19.6792C657.141 16.5719 655.394 14.8249 652.092 14.6307H634.42V24.7277H651.315Z" fill="white"/>
<path d="M768.031 51.916H741.619L737.541 44.3433H705.886L701.808 51.916H684.912L712.101 2.7832H740.842L768.031 51.916ZM731.132 33.0799L721.617 15.7951L712.101 33.0799H731.132Z" fill="white"/>
<path d="M846.488 51.916H816.581L787.063 18.9016V51.916H772.109V2.7832H802.21L831.535 35.7976V2.7832H846.488V51.916Z" fill="white"/>
<path d="M907.08 51.916H854.839V2.7832H907.08C911.546 2.7832 915.625 3.9488 919.12 6.08502C922.616 8.22125 925.335 11.3277 927.471 15.0176C929.413 18.7074 930.578 22.7864 930.578 27.4473C930.578 32.1081 929.607 36.1871 927.665 39.877C925.723 43.5668 923.004 46.4791 919.314 48.8095C915.624 50.7516 911.546 51.916 907.08 51.916ZM892.126 40.2639C895.816 40.2639 898.729 39.0998 901.254 36.5752C903.584 34.0505 904.749 30.9429 904.749 27.4473C904.749 23.7574 903.584 20.6498 901.254 18.3194C898.923 15.7948 895.816 14.6307 892.126 14.6307H880.668V40.4592H892.126V40.2639Z" fill="white"/>
<path d="M973.691 53.6647C962.039 53.6647 952.911 51.7219 946.114 48.0321C938.346 43.7596 934.656 36.7699 934.656 27.2539C934.656 17.738 938.54 10.9398 946.114 6.66735C952.911 2.7833 962.039 1.03662 973.691 1.03662C985.343 1.03662 994.471 2.97751 1001.07 6.66735C1008.84 10.9398 1012.73 17.9322 1012.73 27.2539C1012.73 36.7699 1008.84 43.5654 1001.07 48.0321C994.276 51.9161 985.149 53.6647 973.691 53.6647ZM973.691 41.4303C978.158 41.4303 981.653 40.2655 983.79 37.9351C985.926 35.6046 986.897 32.109 986.897 27.2539C986.897 22.3989 985.926 18.9032 983.79 16.5728C981.653 14.2424 978.352 13.0756 973.691 13.0756C969.03 13.0756 965.729 14.2424 963.593 16.5728C961.456 18.9032 960.485 22.3989 960.485 27.2539C960.485 32.109 961.456 35.6046 963.593 37.9351C965.729 40.2655 969.03 41.4303 973.691 41.4303Z" fill="white"/>
<path d="M1108.86 51.916H1083.03V20.068L1068.66 51.916H1048.26L1033.89 20.068V51.916H1018.94V2.7832H1049.43L1061.86 30.9425L1074.68 2.7832H1108.86V51.916Z" fill="white"/>
<path d="M1232.76 51.916H1207.51L1195.47 36.3798H1184.59V51.916H1158.96V2.7832H1217.41C1222.08 2.7832 1225.96 4.33682 1228.87 7.63826C1231.79 10.9397 1233.34 14.8241 1233.34 19.6792C1233.34 23.7574 1232.17 27.2538 1229.65 30.1669C1227.13 33.0799 1224.21 35.0219 1220.33 35.9929L1232.76 51.916ZM1201.88 24.7277C1203.43 24.7277 1204.79 24.3408 1205.96 23.3698C1207.12 22.3988 1207.7 21.2328 1207.7 19.6792C1207.7 16.5719 1205.96 14.8249 1202.66 14.6307H1184.98V24.7277H1201.88Z" fill="white"/>
<path d="M1276.45 53.6647C1264.8 53.6647 1255.67 51.7219 1248.88 48.0321C1241.11 43.7596 1237.42 36.7699 1237.42 27.2539C1237.42 17.738 1241.3 10.9398 1248.88 6.66735C1255.67 2.7833 1264.8 1.03662 1276.45 1.03662C1288.1 1.03662 1297.23 2.97751 1303.83 6.66735C1311.6 10.9398 1315.49 17.9322 1315.49 27.2539C1315.49 36.7699 1311.6 43.5654 1303.83 48.0321C1297.23 51.9161 1288.1 53.6647 1276.45 53.6647ZM1276.45 41.4303C1280.92 41.4303 1284.41 40.2655 1286.55 37.9351C1288.69 35.6046 1289.66 32.109 1289.66 27.2539C1289.66 22.3989 1288.69 18.9032 1286.55 16.5728C1284.41 14.2424 1281.11 13.0756 1276.45 13.0756C1271.79 13.0756 1268.49 14.2424 1266.35 16.5728C1264.22 18.9032 1263.25 22.3989 1263.25 27.2539C1263.25 32.109 1264.22 35.6046 1266.35 37.9351C1268.68 40.2655 1271.99 41.4303 1276.45 41.4303Z" fill="white"/>
<path d="M1387.73 51.916H1321.7V2.7832H1347.53V40.2639H1387.73V51.916Z" fill="white"/>
<path d="M1458.81 51.916H1392.78V2.7832H1418.61V40.2639H1458.81V51.916Z" fill="white"/>
<path d="M1499.01 53.6647C1494.54 53.6647 1490.07 53.4709 1485.61 53.0825C1481.14 52.6941 1477.26 51.9169 1473.76 50.7517C1470.27 49.5865 1467.35 47.8394 1465.22 45.7032C1463.08 43.3728 1462.11 40.4593 1462.11 36.5753H1487.94C1487.94 38.3231 1488.33 39.6825 1489.3 40.4593C1490.27 41.2362 1491.43 41.8176 1493.18 42.206C1494.93 42.5944 1496.68 42.5948 1498.81 42.5948H1501.34C1503.67 42.5948 1505.81 42.401 1507.36 42.0126C1509.11 41.6242 1510.08 40.6528 1510.08 38.7108C1510.08 37.3513 1508.72 36.3811 1505.81 35.6043C1503.09 35.0217 1499.78 34.4394 1495.71 34.051C1490.85 33.4684 1486 32.6901 1481.14 31.5249C1476.29 30.3597 1471.82 28.8068 1468.32 26.4764C1464.63 24.146 1462.69 20.8441 1462.69 16.3775C1462.69 12.8819 1463.66 10.1634 1465.61 8.02717C1467.55 5.89095 1470.27 4.33733 1473.76 3.17212C1477.26 2.0069 1481.14 1.42429 1485.61 1.23009C1490.07 1.03589 1494.54 0.841309 1499.01 0.841309C1503.67 0.841309 1508.14 1.03513 1512.41 1.42354C1516.68 1.81194 1520.56 2.58913 1524.06 3.75434C1527.56 4.91956 1530.28 6.66852 1532.41 8.80474C1534.55 11.1352 1535.52 14.0467 1535.52 17.9307H1510.27C1510.27 16.1829 1509.88 14.8235 1508.91 14.0467C1507.94 13.2699 1506.78 12.6884 1505.03 12.3C1503.28 12.1058 1500.56 11.9112 1496.87 11.9112C1494.54 11.9112 1492.6 12.105 1491.05 12.4934C1489.49 12.8819 1488.72 13.854 1488.72 15.6018V16.1841C1488.91 17.3493 1490.27 18.1249 1492.99 18.9017C1495.71 19.6786 1499.01 20.2619 1503.09 20.6503C1507.75 21.4271 1512.6 22.2047 1517.65 23.3699C1522.7 24.5351 1526.97 26.2822 1530.47 28.4184C1534.16 30.7488 1536.1 34.0503 1536.1 38.1285C1536.1 41.8184 1535.13 44.7314 1532.99 46.8676C1531.05 49.0039 1528.14 50.5582 1524.64 51.5293C1521.15 52.5003 1517.07 53.0817 1512.6 53.2759C1508.14 53.6643 1503.48 53.6647 1499.01 53.6647Z" fill="white"/>
</svg>
