<svg width="130" height="140" viewBox="0 0 130 140" fill="none" xmlns="http://www.w3.org/2000/svg">
<path d="M65.5063 138.285C64.3411 138.285 63.3701 137.315 63.3701 136.15V99.8338C63.3701 93.2309 60.8454 87.0164 56.1845 82.3556L55.2135 81.3846C50.5527 76.7237 44.3382 74.1987 37.7353 74.1987H3.55573C2.39052 74.1987 1.41956 73.2284 1.41956 72.0632C1.41956 70.898 2.39052 69.9278 3.55573 69.9278H37.5411C44.144 69.9278 50.3585 67.4028 55.0194 62.7419L55.9904 61.7709C60.6512 57.11 63.1758 50.8956 63.1758 44.2927V4.28586C63.1758 3.12064 64.147 2.15039 65.3122 2.15039C66.4774 2.15039 67.4483 3.12064 67.4483 4.28586V44.2927C67.4483 50.8956 69.9729 57.11 74.6337 61.7709L75.6048 62.7419C80.2656 67.4028 86.4801 69.9278 93.083 69.9278H125.709C126.874 69.9278 127.845 70.898 127.845 72.0632C127.845 73.2284 126.874 74.1987 125.709 74.1987H93.083C86.4801 74.1987 80.2656 76.7237 75.6048 81.3846L74.6337 82.3556C69.9729 87.0164 67.4483 93.2309 67.4483 99.8338V136.15C67.6426 137.315 66.6715 138.285 65.5063 138.285Z" fill="white"/>
<path d="M65.5064 2.53968C66.2832 2.53968 66.6716 3.12153 66.6716 3.70413V43.711C66.6716 50.508 69.3904 57.1098 74.2455 61.9648L75.2165 62.9358C80.0716 67.7909 86.6745 70.5105 93.4716 70.5105H126.097C126.874 70.5105 127.263 71.0923 127.263 71.6749C127.263 72.2576 126.68 72.8413 126.097 72.8413H93.4716C86.6745 72.8413 80.0716 75.559 75.2165 80.4141L74.2455 81.3851C69.3904 86.2401 66.6716 92.8438 66.6716 99.6408V135.957C66.6716 136.734 66.089 137.122 65.5064 137.122C64.9238 137.122 64.3412 136.54 64.3412 135.957V99.6408C64.3412 92.8438 61.6223 86.2401 56.7673 81.3851L55.7963 80.4141C50.9412 75.559 44.3383 72.8413 37.5412 72.8413H3.5558C2.77899 72.8413 2.39063 72.2576 2.39063 71.6749C2.39063 71.0923 2.97319 70.5105 3.5558 70.5105H37.5412C44.3383 70.5105 50.9412 67.7909 55.7963 62.9358L56.7673 61.9648C61.6223 57.1098 64.3412 50.508 64.3412 43.711V3.70413C64.147 3.12153 64.7296 2.53968 65.5064 2.53968ZM65.5064 0.597656C63.7586 0.597656 62.3992 1.95631 62.3992 3.70413V43.711C62.3992 50.1196 59.8744 56.1384 55.4077 60.605L54.4367 61.576C49.9701 66.0427 43.9499 68.5685 37.5412 68.5685H3.5558C1.80798 68.5685 0.448608 69.9271 0.448608 71.6749C0.448608 73.4228 1.80798 74.7833 3.5558 74.7833H37.5412C43.9499 74.7833 49.9701 77.3072 54.4367 81.7738L55.4077 82.7449C59.8744 87.2115 62.3992 93.2322 62.3992 99.6408V135.957C62.3992 137.705 63.7586 139.064 65.5064 139.064C67.2542 139.064 68.6136 137.705 68.6136 135.957V99.6408C68.6136 93.2322 71.1382 87.2115 75.6048 82.7449L76.5758 81.7738C81.0425 77.3072 87.0629 74.7833 93.4716 74.7833H126.097C127.845 74.7833 129.205 73.4228 129.205 71.6749C129.205 69.9271 127.845 68.5685 126.097 68.5685H93.4716C87.0629 68.5685 81.0425 66.0427 76.5758 61.576L75.799 60.605C71.3323 56.1384 68.8077 50.1196 68.8077 43.711V3.70413C68.6135 1.95631 67.2542 0.597656 65.5064 0.597656Z" fill="white"/>
</svg>
